<svg width="46" height="47" viewBox="0 0 46 47" fill="none" xmlns="http://www.w3.org/2000/svg">
<g clip-path="url(#clip0_292_10078)">
<path d="M46 23.233C46 10.5305 35.7026 0.233025 23 0.233025C10.2974 0.233025 0 10.5305 0 23.233C0 34.713 8.41077 44.2282 19.4062 45.9536V29.8815H13.5664V23.233H19.4062V18.1658C19.4062 12.4015 22.84 9.2174 28.0937 9.2174C30.6101 9.2174 33.2422 9.66662 33.2422 9.66662V15.3268H30.3419C27.4848 15.3268 26.5938 17.0997 26.5938 18.9186V23.233H32.9727L31.9529 29.8815H26.5938V45.9536C37.5892 44.2282 46 34.713 46 23.233Z" fill="white"/>
<path d="M31.9529 29.8813L32.9727 23.2329H26.5938V18.9185C26.5938 17.0996 27.4848 15.3267 30.3419 15.3267H33.2422V9.6665C33.2422 9.6665 30.6101 9.21729 28.0937 9.21729C22.84 9.21729 19.4063 12.4013 19.4063 18.1657V23.2329H13.5664V29.8813H19.4063V45.9535C20.5772 46.1372 21.7774 46.2329 23 46.2329C24.2226 46.2329 25.4228 46.1372 26.5938 45.9535V29.8813H31.9529Z" fill="black"/>
</g>
<defs>
<clipPath id="clip0_292_10078">
<rect width="46" height="46" fill="white" transform="translate(0 0.23291)"/>
</clipPath>
</defs>
</svg>
