<svg width="109" height="109" viewBox="0 0 109 109" fill="none" xmlns="http://www.w3.org/2000/svg">
<path d="M91.9688 40.875C91.9725 34.5607 90.3804 28.3478 87.3404 22.8135C84.3004 17.2792 79.911 12.6028 74.58 9.21892C69.249 5.83499 63.1492 3.85321 56.8473 3.45764C50.5454 3.06207 44.2457 4.26555 38.5333 6.95629C32.821 9.64703 27.8814 13.7378 24.1731 18.8485C20.4649 23.9593 18.1084 29.9243 17.3226 36.1895C16.5367 42.4548 17.347 48.817 19.678 54.6853C22.0091 60.5536 25.7855 65.7376 30.6563 69.7558V102.188C30.6558 102.768 30.804 103.34 31.0867 103.847C31.3693 104.355 31.7771 104.782 32.2712 105.087C32.7653 105.393 33.3293 105.567 33.9096 105.593C34.4899 105.619 35.0673 105.496 35.5868 105.236L54.5 95.8008L73.4175 105.257C73.8917 105.484 74.4118 105.599 74.9375 105.594C75.8409 105.594 76.7073 105.235 77.3461 104.596C77.9849 103.957 78.3438 103.091 78.3438 102.188V69.7558C82.6055 66.2458 86.0374 61.8358 88.3931 56.8425C90.7488 51.8491 91.9699 46.3962 91.9688 40.875ZM23.8438 40.875C23.8438 34.8118 25.6417 28.8847 29.0103 23.8433C32.3788 18.8019 37.1667 14.8727 42.7684 12.5524C48.3701 10.2321 54.534 9.62496 60.4807 10.8078C66.4275 11.9907 71.8899 14.9104 76.1772 19.1978C80.4646 23.4851 83.3843 28.9476 84.5672 34.8943C85.7501 40.841 85.143 47.005 82.8227 52.6067C80.5024 58.2084 76.5731 62.9962 71.5317 66.3648C66.4903 69.7333 60.5632 71.5313 54.5 71.5313C46.3722 71.5223 38.5799 68.2895 32.8327 62.5423C27.0855 56.7951 23.8528 49.0028 23.8438 40.875ZM30.6563 40.875C30.6563 36.1592 32.0547 31.5492 34.6746 27.6282C37.2946 23.7071 41.0185 20.651 45.3754 18.8463C49.7323 17.0416 54.5265 16.5694 59.1517 17.4894C63.7769 18.4095 68.0255 20.6803 71.3601 24.015C74.6947 27.3496 76.9656 31.5981 77.8856 36.2233C78.8056 40.8486 78.3334 45.6428 76.5288 49.9996C74.7241 54.3565 71.668 58.0804 67.7469 60.7004C63.8258 63.3204 59.2158 64.7188 54.5 64.7188C48.1783 64.712 42.1175 62.1978 37.6474 57.7276C33.1773 53.2575 30.663 47.1967 30.6563 40.875Z" fill="#FE9A05"/>
<path d="M45.7402 52V33.46L48.7702 36.34H42.1402V31H52.8202V52H45.7402ZM60.7693 41.53C59.7493 41.53 58.8093 41.29 57.9493 40.81C57.0893 40.33 56.3993 39.68 55.8793 38.86C55.3793 38.04 55.1293 37.12 55.1293 36.1C55.1293 35.08 55.3793 34.16 55.8793 33.34C56.3993 32.52 57.0893 31.87 57.9493 31.39C58.8093 30.91 59.7493 30.67 60.7693 30.67C61.8093 30.67 62.7493 30.91 63.5893 31.39C64.4493 31.87 65.1293 32.52 65.6293 33.34C66.1493 34.16 66.4093 35.08 66.4093 36.1C66.4093 37.12 66.1493 38.04 65.6293 38.86C65.1293 39.68 64.4493 40.33 63.5893 40.81C62.7493 41.29 61.8093 41.53 60.7693 41.53ZM60.7693 38.41C61.2093 38.41 61.5993 38.31 61.9393 38.11C62.2793 37.89 62.5493 37.61 62.7493 37.27C62.9493 36.93 63.0493 36.54 63.0493 36.1C63.0493 35.66 62.9493 35.27 62.7493 34.93C62.5493 34.59 62.2793 34.32 61.9393 34.12C61.5993 33.9 61.2093 33.79 60.7693 33.79C60.3293 33.79 59.9393 33.9 59.5993 34.12C59.2593 34.32 58.9893 34.59 58.7893 34.93C58.5893 35.27 58.4893 35.66 58.4893 36.1C58.4893 36.54 58.5893 36.93 58.7893 37.27C58.9893 37.61 59.2593 37.89 59.5993 38.11C59.9393 38.31 60.3293 38.41 60.7693 38.41Z" fill="black"/>
</svg>
