<svg width="47" height="47" viewBox="0 0 47 47" fill="none" xmlns="http://www.w3.org/2000/svg">
<path d="M13.6109 0.162487C11.1389 0.279117 9.45079 0.673614 7.97503 1.25351C6.44768 1.84874 5.15313 2.6475 3.86509 3.94019C2.57705 5.23287 1.78387 6.52835 1.19282 8.05802C0.620826 9.53703 0.233298 11.2265 0.124102 13.6999C0.0149069 16.1733 -0.00925556 16.9684 0.00282564 23.2775C0.0149068 29.5867 0.0427865 30.3776 0.162669 32.8561C0.280693 35.3276 0.673797 37.0153 1.25369 38.4915C1.84986 40.0188 2.64768 41.3129 3.94083 42.6014C5.23399 43.8899 6.52853 44.6813 8.06192 45.2732C9.53954 45.8443 11.2295 46.2337 13.7024 46.342C16.1754 46.4502 16.9713 46.4753 23.2787 46.4632C29.586 46.4511 30.3801 46.4233 32.8581 46.3057C35.3362 46.1881 37.015 45.7923 38.4917 45.2151C40.019 44.6176 41.314 43.8212 42.6016 42.5275C43.8892 41.2339 44.6819 39.9375 45.2725 38.4069C45.8449 36.9293 46.2339 35.2393 46.3412 32.7683C46.4495 30.2884 46.475 29.4966 46.4629 23.1883C46.4509 16.8801 46.4225 16.0892 46.305 13.6117C46.1874 11.1341 45.7938 9.45154 45.2144 7.97438C44.6173 6.44703 43.8204 5.15388 42.5277 3.86445C41.235 2.57501 39.9377 1.78276 38.4076 1.19357C36.929 0.621572 35.24 0.231721 32.767 0.124849C30.2941 0.0179769 29.4982 -0.00943818 23.1885 0.00264302C16.8789 0.0147242 16.0889 0.0416746 13.6109 0.162487ZM13.8823 42.1623C11.617 42.0638 10.3871 41.6874 9.56742 41.3724C8.48197 40.9542 7.70877 40.4487 6.8919 39.6397C6.07502 38.8307 5.57319 38.0547 5.14942 36.9716C4.83112 36.1519 4.44778 34.9234 4.34184 32.6581C4.2266 30.2098 4.20244 29.4747 4.18896 23.272C4.17549 17.0692 4.19918 16.335 4.30652 13.8858C4.40317 11.6224 4.78187 10.3911 5.09645 9.57188C5.51464 8.48504 6.01833 7.71324 6.82917 6.89683C7.64 6.08042 8.41366 5.57765 9.49772 5.15388C10.3165 4.83419 11.545 4.4541 13.8093 4.3463C16.2595 4.23013 16.9936 4.2069 23.1955 4.19343C29.3973 4.17995 30.1333 4.20318 32.5844 4.31099C34.8478 4.40949 36.0796 4.78448 36.8979 5.10091C37.9838 5.51911 38.7565 6.02141 39.5729 6.83363C40.3894 7.64586 40.8926 8.41674 41.3164 9.50311C41.6365 10.3195 42.0166 11.5476 42.1235 13.8133C42.2401 16.2635 42.2666 16.9981 42.2777 23.1995C42.2889 29.4009 42.2671 30.1373 42.1597 32.5856C42.0607 34.8509 41.6853 36.0813 41.3698 36.9019C40.9516 37.9869 40.4474 38.7605 39.6361 39.5765C38.8248 40.3924 38.0521 40.8952 36.9676 41.319C36.1498 41.6382 34.9198 42.0192 32.6574 42.127C30.2072 42.2422 29.4731 42.2664 23.2689 42.2799C17.0647 42.2934 16.3329 42.2683 13.8827 42.1623M32.8223 10.8158C32.8233 11.3672 32.9877 11.906 33.2948 12.364C33.602 12.822 34.0381 13.1786 34.5479 13.3887C35.0577 13.5989 35.6185 13.6531 36.1591 13.5446C36.6998 13.436 37.1961 13.1696 37.5853 12.7789C37.9745 12.3883 38.2392 11.891 38.3457 11.3499C38.4523 10.8089 38.396 10.2484 38.184 9.73929C37.972 9.23022 37.6138 8.79546 37.1547 8.48999C36.6956 8.18452 36.1562 8.02207 35.6047 8.02317C34.8655 8.02464 34.1571 8.31967 33.6353 8.84336C33.1135 9.36705 32.8211 10.0765 32.8223 10.8158ZM11.3039 23.2562C11.3169 29.8451 16.6679 35.1743 23.2554 35.1617C29.8429 35.1492 35.1758 29.7986 35.1633 23.2097C35.1508 16.6208 29.7983 11.2902 23.2099 11.3032C16.6214 11.3162 11.2913 16.6682 11.3039 23.2562ZM15.4886 23.2478C15.4856 21.7161 15.9368 20.2179 16.7853 18.9426C17.6337 17.6674 18.8413 16.6723 20.2553 16.0834C21.6692 15.4944 23.2261 15.338 24.7289 15.6338C26.2318 15.9297 27.6132 16.6645 28.6984 17.7455C29.7837 18.8264 30.524 20.2049 30.8258 21.7066C31.1276 23.2083 30.9773 24.7657 30.394 26.182C29.8106 27.5983 28.8204 28.8098 27.5485 29.6633C26.2766 30.5168 24.7802 30.9739 23.2485 30.977C22.2314 30.9791 21.2239 30.7809 20.2834 30.3936C19.343 30.0063 18.4881 29.4375 17.7675 28.7198C17.0469 28.002 16.4748 27.1494 16.0837 26.2105C15.6927 25.2716 15.4905 24.2649 15.4886 23.2478Z" fill="white"/>
</svg>
