<svg width="719" height="421" viewBox="0 0 719 421" fill="none" xmlns="http://www.w3.org/2000/svg">
<g clip-path="url(#clip0_34_28838)">
<path d="M652.81 399.824C652.81 403.474 523.953 406.444 365 406.444C206.047 406.444 77.1904 403.474 77.1904 399.824C77.1904 396.173 206.08 393.16 365 393.16C523.92 393.16 652.81 396.162 652.81 399.824Z" fill="#F5F5F5"/>
<path d="M0.404297 321.567C10.0491 332.626 26.9275 339.322 44.2443 342.206C61.5611 345.089 79.5245 344.614 97.2688 344.128L236.11 340.24C243.333 340.046 250.84 339.884 257.449 342.044C264.058 344.204 269.45 349.431 268.015 354.68C266.919 358.827 261.921 361.97 260.924 366.138C258.819 374.973 274.076 379.887 286.077 381.258C381.549 391.972 478.973 386.658 574.719 377.122C603.939 374.206 633.41 370.836 660.777 362.682C688.144 354.528 713.583 341.082 728.148 322.053L0.404297 321.567Z" fill="#14A23F"/>
<g opacity="0.8">
<path d="M0.404297 321.567C10.0491 332.626 26.9275 339.322 44.2443 342.206C61.5611 345.089 79.5245 344.614 97.2688 344.128L236.11 340.24C243.333 340.046 250.84 339.884 257.449 342.044C264.058 344.204 269.45 349.431 268.015 354.68C266.919 358.827 261.921 361.97 260.924 366.138C258.819 374.973 274.076 379.887 286.077 381.258C381.549 391.972 478.973 386.658 574.719 377.122C603.939 374.206 633.41 370.836 660.777 362.682C688.144 354.528 713.583 341.082 728.148 322.053L0.404297 321.567Z" fill="white"/>
</g>
<path d="M359.52 351.677H324.009C323.937 351.677 323.867 351.649 323.816 351.598C323.764 351.548 323.735 351.479 323.735 351.407C323.735 351.336 323.764 351.267 323.816 351.216C323.867 351.166 323.937 351.137 324.009 351.137H359.52C359.592 351.137 359.662 351.166 359.714 351.216C359.765 351.267 359.794 351.336 359.794 351.407C359.794 351.479 359.765 351.548 359.714 351.598C359.662 351.649 359.592 351.677 359.52 351.677Z" fill="#14A23F"/>
<path d="M383.632 346.461H348.122C348.049 346.461 347.979 346.432 347.928 346.382C347.877 346.331 347.848 346.262 347.848 346.191C347.848 346.119 347.877 346.05 347.928 346C347.979 345.949 348.049 345.921 348.122 345.921H383.632C383.705 345.921 383.774 345.949 383.826 346C383.877 346.05 383.906 346.119 383.906 346.191C383.906 346.262 383.877 346.331 383.826 346.382C383.774 346.432 383.705 346.461 383.632 346.461Z" fill="#14A23F"/>
<path d="M368.287 359.075H351.113C351.04 359.075 350.971 359.047 350.919 358.996C350.868 358.945 350.839 358.877 350.839 358.805C350.839 358.734 350.868 358.665 350.919 358.614C350.971 358.564 351.04 358.535 351.113 358.535H368.287C368.36 358.535 368.43 358.564 368.481 358.614C368.532 358.665 368.561 358.734 368.561 358.805C368.561 358.877 368.532 358.945 368.481 358.996C368.43 359.047 368.36 359.075 368.287 359.075Z" fill="#14A23F"/>
<path d="M506.088 347.249H470.578C470.505 347.249 470.435 347.221 470.384 347.17C470.333 347.12 470.304 347.051 470.304 346.979C470.304 346.908 470.333 346.839 470.384 346.788C470.435 346.738 470.505 346.709 470.578 346.709H506.088C506.161 346.709 506.23 346.738 506.282 346.788C506.333 346.839 506.362 346.908 506.362 346.979C506.359 347.05 506.33 347.117 506.279 347.167C506.228 347.217 506.16 347.247 506.088 347.249Z" fill="#14A23F"/>
<path d="M530.199 342.033H438.574C438.501 342.033 438.431 342.004 438.38 341.954C438.329 341.903 438.3 341.834 438.3 341.763C438.3 341.691 438.329 341.623 438.38 341.572C438.431 341.521 438.501 341.493 438.574 341.493H530.199C530.272 341.493 530.342 341.521 530.393 341.572C530.445 341.623 530.473 341.691 530.473 341.763C530.473 341.834 530.445 341.903 530.393 341.954C530.342 342.004 530.272 342.033 530.199 342.033Z" fill="#14A23F"/>
<path d="M514.768 354.647H497.616C497.544 354.645 497.476 354.615 497.425 354.565C497.374 354.515 497.345 354.448 497.342 354.377C497.342 354.306 497.371 354.237 497.422 354.186C497.473 354.136 497.543 354.107 497.616 354.107H514.746C514.819 354.107 514.889 354.136 514.94 354.186C514.991 354.237 515.02 354.306 515.02 354.377C515.021 354.445 514.995 354.511 514.948 354.561C514.901 354.611 514.837 354.642 514.768 354.647Z" fill="#14A23F"/>
<path d="M514.571 337.162H497.44C497.367 337.162 497.298 337.134 497.246 337.083C497.195 337.032 497.166 336.964 497.166 336.892C497.166 336.82 497.195 336.752 497.246 336.701C497.298 336.65 497.367 336.622 497.44 336.622H514.571C514.642 336.625 514.71 336.654 514.761 336.704C514.812 336.754 514.842 336.821 514.845 336.892C514.845 336.964 514.816 337.032 514.764 337.083C514.713 337.134 514.643 337.162 514.571 337.162Z" fill="#14A23F"/>
<path d="M177.836 378.558C202.169 378.558 221.895 373.631 221.895 367.553C221.895 361.475 202.169 356.548 177.836 356.548C153.502 356.548 133.776 361.475 133.776 367.553C133.776 373.631 153.502 378.558 177.836 378.558Z" fill="#14A23F"/>
<path opacity="0.8" d="M177.836 378.558C202.169 378.558 221.895 373.631 221.895 367.553C221.895 361.475 202.169 356.548 177.836 356.548C153.502 356.548 133.776 361.475 133.776 367.553C133.776 373.631 153.502 378.558 177.836 378.558Z" fill="white"/>
<path d="M63.4359 246.032C63.162 244.295 62.3008 242.7 60.9918 241.506C60.8444 241.784 60.6395 242.029 60.3903 242.224C60.1412 242.42 59.8532 242.561 59.5451 242.64C59.9048 242.1 60.137 241.488 60.2246 240.848C59.3337 240.163 58.3286 239.637 57.2545 239.292C60.2026 239.308 63.1363 238.885 65.9567 238.04C62.5043 235.48 58.4053 235.199 55.9283 236.636C56.7503 235.556 57.5285 234.476 58.2518 233.396C57.9557 233.286 57.6516 233.2 57.3421 233.136C57.7207 233.018 58.1191 232.974 58.5149 233.007L59.3697 231.7C55.3693 232.553 52.4101 235.599 53.3527 238.18C51.1607 235.275 45.7574 236.549 42.2393 240.416L44.2121 240.308C44.4295 239.866 44.7266 239.467 45.0889 239.13C44.9682 239.483 44.8729 239.844 44.8039 240.21C46.6342 240.124 48.4536 239.951 50.2839 239.703C47.4453 241.334 45.4615 245.524 46.0862 250.308C48.8998 247.654 51.2282 244.541 52.9691 241.107C52.6307 242.63 52.714 244.216 53.2102 245.697C53.4145 245.713 53.6197 245.713 53.824 245.697C53.6578 245.79 53.4858 245.873 53.3089 245.945C53.5492 246.593 53.8694 247.21 54.2624 247.781C54.5803 247.901 54.9113 247.985 55.2488 248.03C55.0403 248.115 54.8237 248.181 54.6021 248.224C55.0716 248.805 55.6388 249.301 56.279 249.693C57.1407 247.898 57.274 245.846 56.6517 243.958C61.5069 255.644 59.7205 272.934 59.7205 272.934H63.5017C63.5017 272.934 64.7511 255.438 58.0874 244.174C59.5963 245.388 61.4879 246.045 63.4359 246.032Z" fill="#14A23F"/>
<path opacity="0.3" d="M63.4359 246.032C63.162 244.295 62.3008 242.7 60.9918 241.506C60.8444 241.784 60.6395 242.029 60.3903 242.224C60.1412 242.42 59.8532 242.561 59.5451 242.64C59.9048 242.1 60.137 241.488 60.2246 240.848C59.3337 240.163 58.3286 239.637 57.2545 239.292C60.2026 239.308 63.1363 238.885 65.9567 238.04C62.5043 235.48 58.4053 235.199 55.9283 236.636C56.7503 235.556 57.5285 234.476 58.2518 233.396C57.9557 233.286 57.6516 233.2 57.3421 233.136C57.7207 233.018 58.1191 232.974 58.5149 233.007L59.3697 231.7C55.3693 232.553 52.4101 235.599 53.3527 238.18C51.1607 235.275 45.7574 236.549 42.2393 240.416L44.2121 240.308C44.4295 239.866 44.7266 239.467 45.0889 239.13C44.9682 239.483 44.8729 239.844 44.8039 240.21C46.6342 240.124 48.4536 239.951 50.2839 239.703C47.4453 241.334 45.4615 245.524 46.0862 250.308C48.8998 247.654 51.2282 244.541 52.9691 241.107C52.6307 242.63 52.714 244.216 53.2102 245.697C53.4145 245.713 53.6197 245.713 53.824 245.697C53.6578 245.79 53.4858 245.873 53.3089 245.945C53.5492 246.593 53.8694 247.21 54.2624 247.781C54.5803 247.901 54.9113 247.985 55.2488 248.03C55.0403 248.115 54.8237 248.181 54.6021 248.224C55.0716 248.805 55.6388 249.301 56.279 249.693C57.1407 247.898 57.274 245.846 56.6517 243.958C61.5069 255.644 59.7205 272.934 59.7205 272.934H63.5017C63.5017 272.934 64.7511 255.438 58.0874 244.174C59.5963 245.388 61.4879 246.045 63.4359 246.032Z" fill="black"/>
<path d="M76.4563 223.146C76.0872 220.809 74.9287 218.663 73.1683 217.055C72.9691 217.429 72.6926 217.758 72.3566 218.02C72.0205 218.282 71.6325 218.472 71.2174 218.578C71.6975 217.847 72.0081 217.021 72.1271 216.159C70.9301 215.232 69.5756 214.523 68.1267 214.064C72.1069 214.078 76.067 213.506 79.8758 212.368C75.2178 208.955 69.683 208.534 66.3183 210.489C67.4362 209.049 68.4847 207.569 69.4638 206.05C69.066 205.899 68.6552 205.783 68.2363 205.704C68.7448 205.541 69.2813 205.478 69.8145 205.521C70.1872 204.959 70.5708 204.365 70.9105 203.75C65.5292 204.905 61.5288 209.009 62.8001 212.508C59.8409 208.588 52.5525 210.348 47.7959 215.543L50.4701 215.392C50.7595 214.794 51.1611 214.255 51.6538 213.804C51.4874 214.302 51.3592 214.811 51.2702 215.327C53.7253 215.212 56.1766 214.985 58.6244 214.647C54.7884 216.807 52.1141 222.498 52.9471 228.957C56.7539 225.38 59.899 221.177 62.2412 216.537C61.7808 218.594 61.8906 220.735 62.559 222.736C62.8342 222.781 63.1132 222.799 63.392 222.79C63.167 222.919 62.9325 223.031 62.6905 223.125C63.0176 224.001 63.4519 224.836 63.9838 225.609C64.4169 225.764 64.8649 225.877 65.3209 225.944C65.039 226.061 64.7451 226.148 64.4441 226.203C65.0787 226.989 65.8462 227.661 66.7129 228.19C67.8622 225.763 68.0422 222.998 67.217 220.446C73.793 236.214 71.3489 259.553 71.3489 259.553H76.4563C76.4563 259.553 78.1332 235.944 69.146 220.738C71.2182 222.365 73.8075 223.218 76.4563 223.146Z" fill="#14A23F"/>
<path opacity="0.3" d="M76.4563 223.146C76.0872 220.809 74.9287 218.663 73.1683 217.055C72.9691 217.429 72.6926 217.758 72.3566 218.02C72.0205 218.282 71.6325 218.472 71.2174 218.578C71.6975 217.847 72.0081 217.021 72.1271 216.159C70.9301 215.232 69.5756 214.523 68.1267 214.064C72.1069 214.078 76.067 213.506 79.8758 212.368C75.2178 208.955 69.683 208.534 66.3183 210.489C67.4362 209.049 68.4847 207.569 69.4638 206.05C69.066 205.899 68.6552 205.783 68.2363 205.704C68.7448 205.541 69.2813 205.478 69.8145 205.521C70.1872 204.959 70.5708 204.365 70.9105 203.75C65.5292 204.905 61.5288 209.009 62.8001 212.508C59.8409 208.588 52.5525 210.348 47.7959 215.543L50.4701 215.392C50.7595 214.794 51.1611 214.255 51.6538 213.804C51.4874 214.302 51.3592 214.811 51.2702 215.327C53.7253 215.212 56.1766 214.985 58.6244 214.647C54.7884 216.807 52.1141 222.498 52.9471 228.957C56.7539 225.38 59.899 221.177 62.2412 216.537C61.7808 218.594 61.8906 220.735 62.559 222.736C62.8342 222.781 63.1132 222.799 63.392 222.79C63.167 222.919 62.9325 223.031 62.6905 223.125C63.0176 224.001 63.4519 224.836 63.9838 225.609C64.4169 225.764 64.8649 225.877 65.3209 225.944C65.039 226.061 64.7451 226.148 64.4441 226.203C65.0787 226.989 65.8462 227.661 66.7129 228.19C67.8622 225.763 68.0422 222.998 67.217 220.446C73.793 236.214 71.3489 259.553 71.3489 259.553H76.4563C76.4563 259.553 78.1332 235.944 69.146 220.738C71.2182 222.365 73.8075 223.218 76.4563 223.146Z" fill="black"/>
<path d="M41.1213 260.59C40.8464 258.825 39.9687 257.206 38.6333 256C38.4848 256.282 38.277 256.53 38.0238 256.728C37.7706 256.925 37.4778 257.067 37.1647 257.145C37.5301 256.595 37.7661 255.971 37.8552 255.32C36.9495 254.622 35.9253 254.088 34.8302 253.743C37.8338 253.757 40.8226 253.328 43.6969 252.468C40.1897 249.898 36.0249 249.585 33.4712 251.043C34.3151 249.963 35.1042 248.883 35.8495 247.706C35.5488 247.588 35.2366 247.501 34.9179 247.446C35.302 247.319 35.7088 247.271 36.1125 247.306L36.9674 245.978C32.9122 246.842 29.8982 249.941 30.8517 252.576C28.6597 249.617 23.1249 250.924 19.541 254.855L21.5577 254.747C21.772 254.295 22.0735 253.888 22.4454 253.548C22.3234 253.923 22.2282 254.305 22.1605 254.693C24.0127 254.607 25.8649 254.434 27.7062 254.186C24.8128 255.849 22.7961 260.104 23.4209 264.986C26.2908 262.287 28.6641 259.119 30.4353 255.622C30.0957 257.184 30.1942 258.808 30.7202 260.32C30.9281 260.336 31.137 260.336 31.3449 260.32C31.1762 260.416 31.0003 260.499 30.8189 260.568C31.0621 261.229 31.3899 261.857 31.7943 262.437C32.1171 262.556 32.4512 262.643 32.7917 262.696C32.5799 262.783 32.3595 262.848 32.1341 262.89C32.6179 263.476 33.1954 263.979 33.8438 264.381C34.715 262.551 34.852 260.464 34.2274 258.538C39.1594 270.418 37.351 288.022 37.351 288.022H41.187C41.187 288.022 42.4584 270.224 35.707 258.765C37.2428 259.973 39.1565 260.618 41.1213 260.59Z" fill="#14A23F"/>
<path opacity="0.3" d="M41.1213 260.59C40.8464 258.825 39.9687 257.206 38.6333 256C38.4848 256.282 38.277 256.53 38.0238 256.728C37.7706 256.925 37.4778 257.067 37.1647 257.145C37.5301 256.595 37.7661 255.971 37.8552 255.32C36.9495 254.622 35.9253 254.088 34.8302 253.743C37.8338 253.757 40.8226 253.328 43.6969 252.468C40.1897 249.898 36.0249 249.585 33.4712 251.043C34.3151 249.963 35.1042 248.883 35.8495 247.706C35.5488 247.588 35.2366 247.501 34.9179 247.446C35.302 247.319 35.7088 247.271 36.1125 247.306L36.9674 245.978C32.9122 246.842 29.8982 249.941 30.8517 252.576C28.6597 249.617 23.1249 250.924 19.541 254.855L21.5577 254.747C21.772 254.295 22.0735 253.888 22.4454 253.548C22.3234 253.923 22.2282 254.305 22.1605 254.693C24.0127 254.607 25.8649 254.434 27.7062 254.186C24.8128 255.849 22.7961 260.104 23.4209 264.986C26.2908 262.287 28.6641 259.119 30.4353 255.622C30.0957 257.184 30.1942 258.808 30.7202 260.32C30.9281 260.336 31.137 260.336 31.3449 260.32C31.1762 260.416 31.0003 260.499 30.8189 260.568C31.0621 261.229 31.3899 261.857 31.7943 262.437C32.1171 262.556 32.4512 262.643 32.7917 262.696C32.5799 262.783 32.3595 262.848 32.1341 262.89C32.6179 263.476 33.1954 263.979 33.8438 264.381C34.715 262.551 34.852 260.464 34.2274 258.538C39.1594 270.418 37.351 288.022 37.351 288.022H41.187C41.187 288.022 42.4584 270.224 35.707 258.765C37.2428 259.973 39.1565 260.618 41.1213 260.59Z" fill="black"/>
<path d="M143.488 236.301C121.568 214.139 105.325 207.94 78.5386 240.621C53.0566 271.692 5.88477 321.621 5.88477 321.621H228.471C228.471 321.621 165.364 258.473 143.488 236.301Z" fill="#14A23F"/>
<path opacity="0.3" d="M143.488 236.301C121.568 214.139 105.325 207.94 78.5386 240.621C53.0566 271.692 5.88477 321.621 5.88477 321.621H228.471C228.471 321.621 165.364 258.473 143.488 236.301Z" fill="black"/>
<path d="M563.376 224.378C563.145 222.906 562.415 221.555 561.305 220.544C561.178 220.778 561.004 220.985 560.793 221.15C560.582 221.316 560.338 221.436 560.077 221.505C560.379 221.045 560.574 220.525 560.647 219.982C559.893 219.396 559.04 218.947 558.127 218.654C560.634 218.662 563.128 218.298 565.525 217.574C562.598 215.414 559.113 215.165 556.998 216.386C557.699 215.478 558.357 214.55 558.97 213.588C558.717 213.499 558.457 213.426 558.192 213.372C558.514 213.273 558.853 213.236 559.19 213.264C559.431 212.908 559.672 212.53 559.913 212.184C556.526 212.908 554.006 215.489 554.806 217.692C552.942 215.23 548.361 216.31 545.369 219.593L547.046 219.507C547.232 219.131 547.485 218.791 547.791 218.502C547.689 218.817 547.609 219.138 547.55 219.464C549.096 219.399 550.641 219.248 552.175 219.032C549.764 220.425 548.076 223.978 548.602 228.039C550.998 225.79 552.979 223.148 554.455 220.23C554.161 221.524 554.23 222.871 554.652 224.129C554.827 224.145 555.003 224.145 555.178 224.129C555.038 224.212 554.891 224.284 554.74 224.345C554.948 224.893 555.22 225.415 555.551 225.9C555.824 226 556.107 226.072 556.395 226.116C556.213 226.185 556.026 226.239 555.836 226.278C556.239 226.773 556.724 227.197 557.272 227.531C557.995 226.001 558.109 224.258 557.59 222.65C561.71 232.575 560.187 247.263 560.187 247.263H563.376C563.376 247.263 564.472 232.402 558.784 222.833C560.08 223.87 561.708 224.417 563.376 224.378Z" fill="#14A23F"/>
<path opacity="0.3" d="M563.376 224.378C563.145 222.906 562.415 221.555 561.305 220.544C561.178 220.778 561.004 220.985 560.793 221.15C560.582 221.316 560.338 221.436 560.077 221.505C560.379 221.045 560.574 220.525 560.647 219.982C559.893 219.396 559.04 218.947 558.127 218.654C560.634 218.662 563.128 218.298 565.525 217.574C562.598 215.414 559.113 215.165 556.998 216.386C557.699 215.478 558.357 214.55 558.97 213.588C558.717 213.499 558.457 213.426 558.192 213.372C558.514 213.273 558.853 213.236 559.19 213.264C559.431 212.908 559.672 212.53 559.913 212.184C556.526 212.908 554.006 215.489 554.806 217.692C552.942 215.23 548.361 216.31 545.369 219.593L547.046 219.507C547.232 219.131 547.485 218.791 547.791 218.502C547.689 218.817 547.609 219.138 547.55 219.464C549.096 219.399 550.641 219.248 552.175 219.032C549.764 220.425 548.076 223.978 548.602 228.039C550.998 225.79 552.979 223.148 554.455 220.23C554.161 221.524 554.23 222.871 554.652 224.129C554.827 224.145 555.003 224.145 555.178 224.129C555.038 224.212 554.891 224.284 554.74 224.345C554.948 224.893 555.22 225.415 555.551 225.9C555.824 226 556.107 226.072 556.395 226.116C556.213 226.185 556.026 226.239 555.836 226.278C556.239 226.773 556.724 227.197 557.272 227.531C557.995 226.001 558.109 224.258 557.59 222.65C561.71 232.575 560.187 247.263 560.187 247.263H563.376C563.376 247.263 564.472 232.402 558.784 222.833C560.08 223.87 561.708 224.417 563.376 224.378Z" fill="black"/>
<path d="M688.989 270.634C683.312 280.192 684.342 295.053 684.342 295.053H687.553C687.553 295.053 686.063 280.365 690.206 270.44C689.676 272.046 689.786 273.791 690.512 275.321C691.056 274.987 691.538 274.563 691.937 274.068C691.749 274.036 691.565 273.982 691.389 273.906C691.675 273.868 691.954 273.795 692.222 273.69C692.563 273.209 692.839 272.686 693.044 272.135C692.893 272.078 692.746 272.009 692.606 271.93C692.777 271.941 692.949 271.941 693.121 271.93C693.551 270.67 693.626 269.319 693.34 268.02C694.807 270.944 696.781 273.594 699.171 275.85C699.708 271.79 698.075 268.226 695.62 266.832C697.154 267.048 698.689 267.2 700.245 267.275C700.187 266.95 700.106 266.629 700.004 266.314C700.313 266.601 700.566 266.941 700.749 267.318L702.426 267.416C699.445 264.122 694.853 263.031 692.989 265.493C693.79 263.333 691.28 260.709 687.893 259.974L688.605 261.054C688.942 261.034 689.28 261.074 689.603 261.173C689.339 261.229 689.079 261.301 688.825 261.389C689.438 262.35 690.107 263.29 690.797 264.186C688.693 262.955 685.208 263.214 682.271 265.364C684.668 266.084 687.162 266.448 689.669 266.444C688.753 266.729 687.896 267.171 687.137 267.75C687.214 268.292 687.408 268.812 687.707 269.273C687.447 269.206 687.204 269.086 686.994 268.921C686.784 268.755 686.613 268.548 686.49 268.312C685.375 269.32 684.641 270.672 684.408 272.146C686.069 272.194 687.693 271.658 688.989 270.634Z" fill="#14A23F"/>
<path opacity="0.3" d="M688.989 270.634C683.312 280.192 684.342 295.053 684.342 295.053H687.553C687.553 295.053 686.063 280.365 690.206 270.44C689.676 272.046 689.786 273.791 690.512 275.321C691.056 274.987 691.538 274.563 691.937 274.068C691.749 274.036 691.565 273.982 691.389 273.906C691.675 273.868 691.954 273.795 692.222 273.69C692.563 273.209 692.839 272.686 693.044 272.135C692.893 272.078 692.746 272.009 692.606 271.93C692.777 271.941 692.949 271.941 693.121 271.93C693.551 270.67 693.626 269.319 693.34 268.02C694.807 270.944 696.781 273.594 699.171 275.85C699.708 271.79 698.075 268.226 695.62 266.832C697.154 267.048 698.689 267.2 700.245 267.275C700.187 266.95 700.106 266.629 700.004 266.314C700.313 266.601 700.566 266.941 700.749 267.318L702.426 267.416C699.445 264.122 694.853 263.031 692.989 265.493C693.79 263.333 691.28 260.709 687.893 259.974L688.605 261.054C688.942 261.034 689.28 261.074 689.603 261.173C689.339 261.229 689.079 261.301 688.825 261.389C689.438 262.35 690.107 263.29 690.797 264.186C688.693 262.955 685.208 263.214 682.271 265.364C684.668 266.084 687.162 266.448 689.669 266.444C688.753 266.729 687.896 267.171 687.137 267.75C687.214 268.292 687.408 268.812 687.707 269.273C687.447 269.206 687.204 269.086 686.994 268.921C686.784 268.755 686.613 268.548 686.49 268.312C685.375 269.32 684.641 270.672 684.408 272.146C686.069 272.194 687.693 271.658 688.989 270.634Z" fill="black"/>
<path d="M679.552 250.665C671.88 263.56 673.283 283.616 673.283 283.616H677.667C677.667 283.616 675.65 263.798 681.24 250.406C680.527 252.571 680.676 254.922 681.657 256.983C682.395 256.537 683.048 255.967 683.585 255.298C683.33 255.252 683.08 255.18 682.84 255.082C683.216 255.026 683.583 254.928 683.936 254.79C684.386 254.138 684.754 253.435 685.032 252.695C684.827 252.615 684.629 252.518 684.44 252.404C684.674 252.425 684.908 252.425 685.142 252.404C685.712 250.707 685.81 248.891 685.427 247.144C687.413 251.085 690.075 254.659 693.296 257.706C694.019 252.22 691.751 247.414 688.496 245.535C690.567 245.826 692.649 246.031 694.743 246.129C694.665 245.69 694.559 245.257 694.425 244.833C694.843 245.215 695.182 245.673 695.422 246.183L697.691 246.312C693.669 241.873 687.476 240.394 684.955 243.72C686.051 240.75 682.654 237.24 678.073 236.268C678.412 236.787 678.73 237.294 679.048 237.769C679.5 237.736 679.955 237.791 680.385 237.931C680.03 237.997 679.681 238.095 679.344 238.223C680.166 239.519 681.065 240.772 682.007 241.992C679.158 240.34 674.445 240.675 670.488 243.58C673.725 244.549 677.09 245.037 680.473 245.027C679.241 245.417 678.087 246.017 677.064 246.798C677.164 247.533 677.426 248.237 677.831 248.861C677.48 248.77 677.151 248.607 676.866 248.384C676.581 248.161 676.346 247.882 676.177 247.565C674.676 248.928 673.687 250.751 673.371 252.738C675.614 252.784 677.803 252.05 679.552 250.665Z" fill="#14A23F"/>
<path opacity="0.3" d="M679.552 250.665C671.88 263.56 673.283 283.616 673.283 283.616H677.667C677.667 283.616 675.65 263.798 681.24 250.406C680.527 252.571 680.676 254.922 681.657 256.983C682.395 256.537 683.048 255.967 683.585 255.298C683.33 255.252 683.08 255.18 682.84 255.082C683.216 255.026 683.583 254.928 683.936 254.79C684.386 254.138 684.754 253.435 685.032 252.695C684.827 252.615 684.629 252.518 684.44 252.404C684.674 252.425 684.908 252.425 685.142 252.404C685.712 250.707 685.81 248.891 685.427 247.144C687.413 251.085 690.075 254.659 693.296 257.706C694.019 252.22 691.751 247.414 688.496 245.535C690.567 245.826 692.649 246.031 694.743 246.129C694.665 245.69 694.559 245.257 694.425 244.833C694.843 245.215 695.182 245.673 695.422 246.183L697.691 246.312C693.669 241.873 687.476 240.394 684.955 243.72C686.051 240.75 682.654 237.24 678.073 236.268C678.412 236.787 678.73 237.294 679.048 237.769C679.5 237.736 679.955 237.791 680.385 237.931C680.03 237.997 679.681 238.095 679.344 238.223C680.166 239.519 681.065 240.772 682.007 241.992C679.158 240.34 674.445 240.675 670.488 243.58C673.725 244.549 677.09 245.037 680.473 245.027C679.241 245.417 678.087 246.017 677.064 246.798C677.164 247.533 677.426 248.237 677.831 248.861C677.48 248.77 677.151 248.607 676.866 248.384C676.581 248.161 676.346 247.882 676.177 247.565C674.676 248.928 673.687 250.751 673.371 252.738C675.614 252.784 677.803 252.05 679.552 250.665Z" fill="black"/>
<path d="M570.138 233.709C594.897 208.707 616.773 193.284 646.968 230.199C675.705 265.31 719.304 321.902 719.304 321.902L467.761 321.459C467.761 321.459 545.379 258.711 570.138 233.709Z" fill="#14A23F"/>
<path opacity="0.3" d="M570.138 233.709C594.897 208.707 616.773 193.284 646.968 230.199C675.705 265.31 719.304 321.902 719.304 321.902L467.761 321.459C467.761 321.459 545.379 258.711 570.138 233.709Z" fill="black"/>
<path d="M167.041 239.551C204.173 213.545 221.359 188.057 266.492 225.566C286.812 213.977 304.655 202.378 317.642 191.438C387.962 132.254 458.676 168.682 516.084 208.89C573.493 249.099 639.932 321.588 639.932 321.588H42.2285C42.2285 321.588 129.689 265.72 167.041 239.551Z" fill="#14A23F"/>
<path d="M290.1 196.805C289.623 193.668 288.077 190.785 285.716 188.629C285.45 189.131 285.081 189.571 284.631 189.923C284.182 190.275 283.663 190.529 283.107 190.671C283.749 189.692 284.164 188.585 284.324 187.431C282.716 186.187 280.898 185.232 278.953 184.612C284.292 184.64 289.604 183.879 294.714 182.355C288.478 177.765 281.047 177.203 276.542 179.817C278.033 177.894 279.447 175.918 280.751 173.866C280.213 173.667 279.659 173.512 279.096 173.402C279.783 173.19 280.504 173.106 281.222 173.153C281.726 172.397 282.231 171.609 282.757 170.799C275.534 172.343 270.175 177.851 271.873 182.538C267.906 177.279 258.129 179.59 251.762 186.599L255.335 186.405C255.714 185.588 256.254 184.854 256.924 184.245C256.703 184.912 256.531 185.594 256.409 186.286C259.697 186.135 262.985 185.832 266.273 185.379C261.133 188.327 257.505 195.909 258.656 204.57C263.745 199.783 267.954 194.163 271.095 187.96C270.47 190.719 270.618 193.593 271.523 196.276C271.886 196.327 272.252 196.352 272.619 196.351C272.315 196.521 272 196.669 271.676 196.794C272.114 197.968 272.695 199.085 273.408 200.121C273.986 200.331 274.585 200.483 275.194 200.574C274.819 200.725 274.43 200.84 274.032 200.92C274.886 201.974 275.916 202.877 277.079 203.588C278.625 200.332 278.864 196.62 277.748 193.198C286.516 214.355 283.305 245.643 283.305 245.643H290.144C290.144 245.643 292.401 213.977 280.345 193.587C283.111 195.758 286.565 196.898 290.1 196.805Z" fill="#14A23F"/>
<path d="M532.688 200.628C524.238 214.917 525.816 237.111 525.816 237.111H530.605C530.605 237.111 528.348 215.176 534.496 200.391C533.72 202.793 533.889 205.395 534.968 207.681C535.805 207.191 536.547 206.558 537.16 205.812C536.878 205.756 536.603 205.673 536.338 205.564C536.763 205.498 537.181 205.393 537.587 205.251C538.089 204.526 538.498 203.742 538.804 202.918C538.576 202.831 538.356 202.726 538.146 202.605C538.405 202.627 538.665 202.627 538.924 202.605C539.561 200.724 539.667 198.708 539.231 196.773C541.442 201.137 544.409 205.088 547.999 208.448C548.788 202.378 546.267 197.075 542.661 195.002C544.952 195.315 547.265 195.531 549.577 195.639C549.489 195.153 549.368 194.673 549.216 194.202C549.677 194.628 550.049 195.138 550.312 195.704L552.832 195.833C548.361 190.93 541.511 189.353 538.727 192.993C539.922 189.753 536.162 185.843 531.055 184.763C531.417 185.336 531.778 185.843 532.151 186.416C532.654 186.381 533.16 186.439 533.641 186.588C533.245 186.663 532.857 186.772 532.48 186.912C533.4 188.352 534.387 189.746 535.439 191.092C532.282 189.256 527.065 189.645 522.692 192.863C526.293 193.905 530.032 194.407 533.784 194.354C532.421 194.789 531.146 195.454 530.014 196.319C530.136 197.129 530.427 197.905 530.869 198.598C530.48 198.498 530.117 198.318 529.804 198.071C529.49 197.823 529.233 197.513 529.049 197.162C527.383 198.67 526.289 200.693 525.947 202.896C528.393 202.933 530.776 202.131 532.688 200.628Z" fill="#14A23F"/>
<path d="M512.182 174.773C501.31 193.133 503.349 221.742 503.349 221.742H509.519C509.519 221.742 506.604 193.511 514.528 174.417C513.532 177.506 513.747 180.851 515.131 183.791C516.182 183.156 517.113 182.344 517.881 181.394C517.508 181.317 517.142 181.212 516.785 181.08C517.335 180.995 517.874 180.857 518.397 180.67C519.041 179.736 519.568 178.728 519.964 177.668C519.673 177.554 519.391 177.42 519.12 177.268C519.454 177.27 519.788 177.244 520.117 177.192C520.937 174.775 521.073 172.184 520.512 169.697C523.358 175.312 527.174 180.395 531.79 184.72C532.798 176.912 529.598 170.075 524.918 167.44C527.877 167.85 530.836 168.12 533.817 168.261C533.708 167.635 533.554 167.018 533.357 166.414C533.954 166.962 534.438 167.618 534.782 168.347L538.07 168.52C532.327 162.202 523.504 160.107 519.92 164.859C521.454 160.625 516.632 155.657 510.056 154.264C510.527 154.998 510.999 155.711 511.448 156.424C512.092 156.38 512.74 156.457 513.355 156.651C512.848 156.749 512.35 156.887 511.864 157.061C513.048 158.919 514.319 160.701 515.668 162.461C511.601 160.107 504.905 160.604 499.228 164.74C503.846 166.12 508.649 166.808 513.476 166.781C511.723 167.343 510.084 168.201 508.631 169.319C508.778 170.361 509.152 171.36 509.727 172.246C509.227 172.117 508.76 171.886 508.355 171.568C507.951 171.25 507.62 170.852 507.382 170.399C505.236 172.341 503.829 174.948 503.392 177.786C506.591 177.836 509.705 176.769 512.182 174.773Z" fill="#14A23F"/>
<path d="M101.357 266.724C101.011 264.525 99.9171 262.507 98.2554 261C98.0811 261.356 97.833 261.671 97.5271 261.926C97.2213 262.181 96.8645 262.37 96.4799 262.48C96.9319 261.796 97.2239 261.021 97.3348 260.212C96.1975 259.31 94.9059 258.615 93.5207 258.16C97.2599 258.183 100.981 257.648 104.557 256.572C100.173 253.332 94.9784 252.965 91.8219 254.801C92.9179 253.451 93.8605 252.069 94.7701 250.632C94.4145 250.495 94.0479 250.386 93.6741 250.308C94.1545 250.154 94.6611 250.096 95.1647 250.136L96.2607 248.472C91.1972 249.552 87.4927 253.419 88.5887 256.702C85.8158 253.019 78.9658 254.639 74.4941 259.553L77.004 259.413C77.2719 258.853 77.6436 258.348 78.1 257.922C77.9445 258.388 77.8273 258.864 77.7493 259.348C80.0582 259.247 82.3598 259.035 84.6541 258.711C81.0482 260.784 78.5384 266.098 79.3165 272.168C82.8997 268.803 85.866 264.853 88.0845 260.493C87.6501 262.428 87.7523 264.442 88.3805 266.325C88.6394 266.346 88.8997 266.346 89.1586 266.325C88.9509 266.444 88.7348 266.549 88.512 266.638C88.814 267.462 89.219 268.246 89.7176 268.971C90.1214 269.122 90.5402 269.23 90.967 269.295C90.7003 269.397 90.4253 269.476 90.145 269.532C90.7632 270.273 91.5044 270.905 92.337 271.401C93.4217 269.12 93.5901 266.52 92.8083 264.122C98.9678 278.95 96.6991 300.842 96.6991 300.842H101.5C101.5 300.842 103.078 278.648 94.6277 264.348C96.5188 265.893 98.9007 266.734 101.357 266.724Z" fill="#14A23F"/>
<path d="M225.249 181.178C216.799 195.466 218.388 217.66 218.388 217.66H223.178C223.178 217.66 220.92 195.725 227.068 180.94C226.287 183.342 226.455 185.945 227.54 188.23C228.353 187.729 229.075 187.097 229.677 186.362C229.395 186.307 229.119 186.224 228.855 186.113C229.28 186.047 229.699 185.942 230.104 185.8C230.598 185.06 230.996 184.262 231.288 183.424C231.061 183.337 230.841 183.232 230.63 183.111C230.891 183.115 231.151 183.097 231.409 183.057C232.04 181.175 232.146 179.161 231.715 177.225C233.927 181.589 236.894 185.54 240.483 188.9C241.262 182.83 238.752 177.527 235.146 175.454C237.437 175.767 239.749 175.983 242.062 176.091C241.973 175.605 241.853 175.125 241.7 174.654C242.158 175.083 242.529 175.592 242.796 176.156L245.306 176.285C240.845 171.382 233.995 169.805 231.211 173.445C232.406 170.205 228.647 166.295 223.539 165.215C223.901 165.788 224.263 166.295 224.635 166.868C225.139 166.833 225.644 166.891 226.126 167.04C225.73 167.115 225.341 167.224 224.964 167.364C225.885 168.804 226.867 170.198 227.912 171.544C224.756 169.708 219.55 170.097 215.177 173.315C218.758 174.386 222.482 174.922 226.224 174.903C224.862 175.338 223.586 176.003 222.454 176.868C222.572 177.679 222.863 178.456 223.309 179.147C222.92 179.046 222.556 178.866 222.241 178.619C221.926 178.371 221.666 178.062 221.479 177.711C219.82 179.223 218.73 181.244 218.388 183.446C220.876 183.515 223.307 182.711 225.249 181.178Z" fill="#14A23F"/>
<path d="M170.58 214.96C170.132 212.128 168.726 209.529 166.591 207.584C166.352 208.038 166.019 208.437 165.613 208.755C165.207 209.073 164.737 209.303 164.234 209.43C164.808 208.543 165.182 207.545 165.33 206.504C163.875 205.384 162.232 204.525 160.475 203.966C165.301 203.992 170.104 203.303 174.723 201.924C169.09 197.777 162.382 197.28 158.283 199.635C159.631 197.896 160.903 196.114 162.086 194.235C161.603 194.05 161.104 193.909 160.596 193.814C161.214 193.618 161.866 193.545 162.514 193.598L163.895 191.438C157.384 192.842 152.54 197.799 154.031 202.032C150.458 197.291 141.635 199.376 135.881 205.694L139.169 205.521C139.517 204.794 140.004 204.142 140.605 203.598C140.396 204.196 140.242 204.81 140.144 205.434C143.114 205.305 146.085 205.024 149.033 204.614C144.397 207.281 141.164 214.118 142.172 221.894C146.789 217.577 150.612 212.506 153.472 206.903C152.914 209.394 153.046 211.986 153.855 214.409C154.188 214.463 154.526 214.485 154.864 214.474C154.593 214.629 154.311 214.762 154.02 214.874C154.41 215.934 154.933 216.943 155.576 217.876C156.096 218.071 156.636 218.208 157.187 218.286C156.835 218.432 156.467 218.537 156.091 218.599C156.869 219.548 157.803 220.362 158.853 221.008C160.236 218.067 160.452 214.723 159.456 211.634C167.38 230.717 164.465 258.948 164.465 258.948H170.635C170.635 258.948 172.663 230.382 161.79 211.99C164.274 213.968 167.387 215.02 170.58 214.96Z" fill="#14A23F"/>
<path d="M398.976 123.711C398.358 119.748 396.395 116.108 393.408 113.386C393.075 114.02 392.61 114.577 392.044 115.022C391.477 115.467 390.822 115.789 390.12 115.967C390.931 114.731 391.455 113.333 391.655 111.874C389.625 110.311 387.332 109.112 384.881 108.332C391.616 108.358 398.317 107.394 404.763 105.47C396.894 99.6808 387.512 98.9896 381.824 102.23C383.709 99.7996 385.495 97.3048 387.15 94.7236C386.471 94.4668 385.771 94.268 385.057 94.1296C385.925 93.8674 386.836 93.7649 387.742 93.8272L389.682 90.8356C380.563 92.8012 373.79 99.7456 375.938 105.664C370.929 99.022 358.599 101.938 350.555 110.783L355.081 110.546C355.562 109.526 356.239 108.609 357.076 107.846C356.795 108.689 356.579 109.552 356.429 110.427C360.594 110.232 364.741 109.847 368.869 109.271C362.381 112.997 357.854 122.566 359.268 133.496C365.706 127.44 371.028 120.329 374.995 112.479C374.215 115.959 374.404 119.583 375.543 122.966C376.007 123.041 376.477 123.074 376.946 123.063C376.567 123.28 376.171 123.468 375.763 123.624C376.31 125.107 377.046 126.515 377.955 127.815C378.681 128.085 379.434 128.28 380.201 128.398C379.724 128.589 379.228 128.734 378.722 128.83C379.799 130.162 381.1 131.302 382.569 132.2C384.515 128.09 384.816 123.408 383.413 119.088C394.493 145.786 390.416 185.271 390.416 185.271H399.053C399.053 185.271 401.902 145.311 386.69 119.585C390.166 122.341 394.516 123.802 398.976 123.711Z" fill="#14A23F"/>
<path d="M482.272 175C474.282 188.511 475.784 209.495 475.784 209.495H480.31C480.31 209.495 478.173 188.748 483.993 174.73C483.255 176.999 483.411 179.459 484.431 181.62C485.205 181.149 485.891 180.55 486.459 179.849C486.192 179.8 485.931 179.724 485.681 179.622C486.085 179.565 486.482 179.464 486.864 179.32C487.318 178.647 487.686 177.922 487.96 177.16C487.75 177.074 487.546 176.976 487.346 176.868C487.591 176.89 487.836 176.89 488.081 176.868C488.679 175.091 488.777 173.188 488.366 171.36C490.452 175.483 493.248 179.217 496.63 182.398C497.364 176.652 494.986 171.598 491.588 169.676C493.78 169.978 495.972 170.18 498.164 170.28C498.078 169.824 497.964 169.373 497.824 168.93C498.276 169.33 498.648 169.81 498.92 170.345L501.288 170.475C497.068 165.831 490.591 164.297 487.96 167.786C489.056 164.675 485.538 161.025 480.749 159.999C481.088 160.539 481.428 161.079 481.757 161.565C482.234 161.532 482.714 161.587 483.171 161.727C482.798 161.803 482.431 161.908 482.075 162.04C482.941 163.39 483.883 164.708 484.869 165.982C481.877 164.254 476.956 164.621 472.813 167.656C476.198 168.672 479.72 169.178 483.258 169.157C481.969 169.569 480.763 170.202 479.696 171.026C479.803 171.794 480.075 172.531 480.496 173.186C480.128 173.092 479.784 172.922 479.488 172.687C479.191 172.453 478.948 172.159 478.776 171.825C477.206 173.245 476.173 175.149 475.849 177.225C478.189 177.25 480.463 176.463 482.272 175Z" fill="#14A23F"/>
<path d="M414.671 143.68C406.648 157.202 408.171 178.24 408.171 178.24H412.709C412.709 178.24 410.517 157.504 416.38 143.486C415.647 145.753 415.807 148.209 416.83 150.365C417.6 149.897 418.282 149.302 418.846 148.605C418.58 148.552 418.319 148.472 418.068 148.367C418.474 148.315 418.872 148.213 419.252 148.065C419.723 147.393 420.109 146.668 420.403 145.905C420.185 145.829 419.975 145.732 419.778 145.613C420.022 145.635 420.268 145.635 420.512 145.613C421.114 143.833 421.216 141.927 420.808 140.094C422.888 144.218 425.681 147.953 429.061 151.132C429.806 145.397 427.428 140.332 424.02 138.41C426.212 138.712 428.404 138.917 430.596 139.025C430.521 138.563 430.408 138.108 430.256 137.664C430.711 138.061 431.083 138.542 431.352 139.079L433.73 139.209C429.5 134.565 423.022 133.031 420.392 136.52C421.488 133.409 417.97 129.77 413.18 128.733L414.199 130.31C414.673 130.271 415.15 130.326 415.602 130.472C415.229 130.541 414.862 130.642 414.506 130.774C415.383 132.135 416.315 133.442 417.301 134.716C414.32 132.988 409.399 133.355 405.245 136.401C408.632 137.41 412.152 137.916 415.69 137.902C414.4 138.308 413.194 138.937 412.128 139.76C412.234 140.53 412.511 141.267 412.939 141.92C412.571 141.826 412.226 141.658 411.928 141.426C411.63 141.193 411.384 140.901 411.207 140.57C409.643 141.994 408.612 143.897 408.281 145.97C410.618 145.972 412.881 145.161 414.671 143.68Z" fill="#14A23F"/>
<path opacity="0.2" d="M386.712 228.276C385.76 231.193 385.963 234.357 387.282 237.132C388.275 236.531 389.154 235.763 389.879 234.864C389.538 234.8 389.203 234.702 388.882 234.573C389.401 234.488 389.912 234.354 390.405 234.173C391.015 233.295 391.508 232.345 391.874 231.344C391.603 231.235 391.339 231.109 391.085 230.966C391.4 230.966 391.715 230.944 392.027 230.901C392.795 228.611 392.924 226.16 392.4 223.805C395.083 229.113 398.68 233.922 403.031 238.018C403.974 230.631 400.916 224.162 396.532 221.645C399.33 222.034 402.132 222.293 404.938 222.423C404.841 221.833 404.698 221.252 404.511 220.684C405.073 221.203 405.53 221.822 405.859 222.509L408.906 222.671C403.48 216.699 395.14 214.722 391.764 219.204C393.211 215.208 388.641 210.51 382.481 209.193C382.93 209.895 383.358 210.564 383.785 211.212C384.396 211.166 385.01 211.236 385.594 211.418C385.115 211.511 384.646 211.645 384.191 211.817C385.287 213.556 386.514 215.252 387.786 216.893C383.939 214.658 377.604 215.133 372.277 219.053C376.637 220.353 381.17 221.001 385.725 220.976C384.067 221.503 382.516 222.315 381.144 223.373C381.278 224.358 381.63 225.302 382.174 226.138C381.707 226.014 381.27 225.795 380.893 225.495C380.516 225.196 380.205 224.823 379.982 224.399C377.964 226.238 376.638 228.698 376.223 231.376C379.236 231.443 382.176 230.464 384.531 228.611C375.894 243.234 375.872 264.64 376.091 271.088C376.708 271.517 377.271 272.018 377.768 272.578C378.077 271.49 378.562 270.458 379.204 269.522C379.456 270.602 379.697 271.682 379.949 272.762C380.475 271.967 381.101 271.241 381.813 270.602C381.319 263.636 380.574 243.04 386.712 228.276Z" fill="white"/>
<path opacity="0.2" d="M511.963 257.08C511.331 258.823 511.074 260.677 511.208 262.523C511.342 264.369 511.864 266.168 512.741 267.804C514.057 267.089 515.239 266.157 516.238 265.05C515.779 264.97 515.328 264.851 514.889 264.694C515.587 264.601 516.273 264.442 516.939 264.219C517.754 263.171 518.422 262.02 518.923 260.795C518.548 260.667 518.182 260.516 517.827 260.342C518.256 260.345 518.684 260.316 519.109 260.255C520.143 257.51 520.315 254.522 519.602 251.68C523.301 258.199 528.148 264.017 533.916 268.863C535.198 259.931 531.077 252.112 525.148 249.066C528.907 249.531 532.678 249.855 536.47 250.006C536.338 249.271 536.144 248.549 535.889 247.846C536.628 248.443 537.242 249.177 537.697 250.006L541.818 250.2C534.497 242.975 523.274 240.599 518.725 246.021C520.676 241.182 514.517 235.502 506.22 233.903L507.985 236.344C508.808 236.289 509.636 236.377 510.429 236.603C509.782 236.713 509.144 236.872 508.522 237.078C510.034 239.184 511.656 241.236 513.366 243.213C508.193 240.524 499.666 241.053 492.542 245.826C498.439 247.407 504.526 248.191 510.637 248.159C508.431 248.785 506.346 249.766 504.466 251.064C504.662 252.268 505.138 253.411 505.858 254.402C505.241 254.268 504.657 254.013 504.143 253.651C503.629 253.289 503.194 252.828 502.866 252.296C500.205 254.417 498.408 257.411 497.803 260.73C501.801 260.838 505.727 259.668 508.993 257.393C497.353 275.202 497.332 301.101 497.616 308.92C498.447 309.425 499.209 310.031 499.885 310.724C500.312 309.388 500.968 308.135 501.825 307.019L502.812 310.918C503.536 309.948 504.383 309.074 505.332 308.315C504.708 299.891 503.71 274.997 511.963 257.08Z" fill="white"/>
<path opacity="0.2" d="M443.517 235.944C442.92 237.78 443.049 239.771 443.879 241.517C444.505 241.136 445.057 240.65 445.512 240.081C445.296 240.048 445.086 239.986 444.887 239.897C445.213 239.85 445.532 239.77 445.841 239.66C446.222 239.1 446.535 238.499 446.772 237.867C446.597 237.803 446.429 237.723 446.268 237.629C446.465 237.645 446.663 237.645 446.86 237.629C447.346 236.187 447.429 234.643 447.101 233.158C448.785 236.499 451.048 239.525 453.787 242.1C454.39 237.456 452.461 233.385 449.699 231.797C451.452 232.046 453.217 232.208 454.992 232.294C454.929 231.928 454.837 231.567 454.718 231.214C455.073 231.537 455.36 231.926 455.562 232.359L457.491 232.467C454.072 228.708 448.822 227.466 446.696 230.307C447.605 227.79 444.734 224.842 440.854 224.01L441.676 225.274C442.046 225.257 442.417 225.301 442.772 225.404C442.471 225.468 442.175 225.551 441.884 225.652C442.586 226.732 443.342 227.812 444.142 228.892C441.731 227.488 437.741 227.812 434.388 230.253C437.13 231.073 439.983 231.481 442.849 231.462C441.806 231.797 440.83 232.309 439.966 232.974C440.051 233.595 440.276 234.189 440.624 234.713C440.326 234.64 440.048 234.506 439.806 234.32C439.565 234.134 439.365 233.9 439.221 233.633C437.953 234.79 437.119 236.335 436.854 238.018C438.749 238.06 440.6 237.445 442.082 236.279C436.602 245.481 436.602 258.959 436.766 263.009C437.17 263.276 437.538 263.592 437.862 263.949C438.05 263.263 438.354 262.613 438.761 262.026C438.914 262.696 439.068 263.376 439.232 264.057C439.562 263.555 439.956 263.098 440.405 262.696C440.12 258.16 439.659 245.2 443.517 235.944Z" fill="white"/>
<path opacity="0.2" d="M355.871 285.441C356.702 286.193 357.438 287.041 358.063 287.968L358.929 284.188C359.68 285.29 360.246 286.505 360.606 287.784C361.192 287.124 361.858 286.536 362.589 286.035C362.83 278.475 362.819 253.365 352.725 236.214C355.488 238.392 358.943 239.54 362.48 239.454C361.997 236.32 360.452 233.438 358.096 231.279C357.83 231.78 357.461 232.221 357.011 232.572C356.562 232.924 356.043 233.179 355.487 233.32C356.132 232.341 356.551 231.235 356.715 230.08C355.102 228.838 353.28 227.884 351.333 227.261C356.672 227.289 361.984 226.528 367.094 225.004C360.858 220.414 353.427 219.852 348.922 222.466C350.413 220.544 351.827 218.567 353.131 216.515C352.596 216.318 352.046 216.163 351.487 216.051C352.17 215.839 352.887 215.755 353.602 215.802C354.106 215.046 354.61 214.258 355.136 213.437C347.914 214.992 342.554 220.49 344.253 225.188C340.286 219.928 330.509 222.239 324.142 229.248L327.726 229.054C328.105 228.24 328.641 227.507 329.304 226.894C329.083 227.561 328.911 228.244 328.789 228.935C332.077 228.784 335.365 228.482 338.653 228.017C333.512 230.976 329.885 238.558 331.035 247.22C336.14 242.422 340.361 236.787 343.508 230.566C342.888 233.325 343.036 236.198 343.935 238.882C344.298 238.933 344.665 238.958 345.031 238.958C344.731 239.125 344.42 239.273 344.1 239.4C344.529 240.576 345.107 241.694 345.82 242.727C346.399 242.937 346.997 243.089 347.607 243.18C347.228 243.333 346.836 243.449 346.434 243.526C347.288 244.58 348.318 245.483 349.481 246.194C351.027 242.938 351.266 239.226 350.15 235.804C357.328 253.16 356.419 277.298 355.871 285.441Z" fill="white"/>
<path opacity="0.2" d="M433.741 208.48C432.568 212.11 432.822 216.042 434.454 219.496C435.691 218.746 436.785 217.788 437.687 216.666C437.262 216.588 436.846 216.465 436.448 216.299C437.092 216.202 437.724 216.039 438.333 215.813C439.094 214.721 439.709 213.538 440.164 212.292C439.825 212.16 439.495 212.004 439.177 211.828C439.574 211.831 439.97 211.803 440.361 211.742C441.314 208.898 441.473 205.854 440.821 202.929C444.151 209.525 448.62 215.5 454.028 220.587C455.212 211.407 451.409 203.372 445.962 200.24C449.425 200.722 452.907 201.046 456.406 201.212C456.283 200.479 456.103 199.757 455.869 199.052C456.572 199.694 457.141 200.464 457.546 201.32L461.338 201.525C454.587 194.094 444.23 191.643 440.021 197.205C441.83 192.237 436.141 186.405 428.48 184.763L430.113 187.269C430.854 187.221 431.597 187.309 432.305 187.528C431.71 187.647 431.123 187.809 430.552 188.014C431.944 190.174 433.445 192.334 435.024 194.321C430.245 191.556 422.376 192.161 415.756 197.01C421.17 198.63 426.801 199.438 432.459 199.408C430.401 200.067 428.476 201.076 426.771 202.389C426.941 203.615 427.378 204.79 428.053 205.834C427.466 205.682 426.917 205.411 426.442 205.04C425.967 204.668 425.575 204.203 425.291 203.674C422.783 205.949 421.133 208.995 420.611 212.314C424.358 212.41 428.019 211.197 430.946 208.89C420.206 227.067 420.184 253.678 420.447 261.692C421.222 262.22 421.926 262.844 422.54 263.549C422.922 262.192 423.526 260.904 424.327 259.737L425.247 263.744C425.9 262.755 426.681 261.854 427.571 261.065C427.045 252.425 426.113 226.84 433.741 208.48Z" fill="white"/>
<path d="M485.78 278.95C466.961 263.106 444.614 248.289 419.866 249.164C401.388 249.822 384.454 259.218 369.209 269.532C346.944 284.602 326.499 302.129 308.271 321.772L529.992 322.301C516.394 306.765 501.614 292.272 485.78 278.95Z" fill="#14A23F"/>
<g opacity="0.2">
<path d="M485.78 278.95C466.961 263.106 444.614 248.289 419.866 249.164C401.388 249.822 384.454 259.218 369.209 269.532C346.944 284.602 326.499 302.129 308.271 321.772L529.992 322.301C516.394 306.765 501.614 292.272 485.78 278.95Z" fill="white"/>
</g>
<path d="M641.192 137.632C584.54 187.312 587.28 301.446 588.233 321.567L608.893 321.383C608.893 321.308 608.893 321.232 608.893 321.156C607.216 300.431 600.508 191.848 641.192 137.632Z" fill="#CD877B"/>
<path opacity="0.2" d="M587.894 304.708V307.84C594.581 307.104 601.32 306.924 608.038 307.3C608.038 306.285 607.95 305.205 607.907 304.125C601.231 303.773 594.537 303.969 587.894 304.708Z" fill="black"/>
<path opacity="0.2" d="M588.289 287.59C588.289 288.67 588.201 289.75 588.168 290.765C594.605 290.195 601.08 290.159 607.523 290.657C607.523 289.577 607.523 288.497 607.523 287.482C601.12 286.992 594.686 287.028 588.289 287.59Z" fill="black"/>
<path opacity="0.2" d="M589.406 270.267C589.319 271.347 589.231 272.427 589.154 273.442C595.285 273.075 601.436 273.205 607.545 273.831C607.545 272.751 607.545 271.671 607.611 270.656C601.563 270.04 595.475 269.91 589.406 270.267Z" fill="black"/>
<path opacity="0.2" d="M591.302 252.814C591.17 253.894 591.028 254.974 590.896 255.989C596.659 255.848 602.425 256.162 608.137 256.929C608.137 255.849 608.257 254.769 608.323 253.754C602.682 253.009 596.992 252.695 591.302 252.814Z" fill="black"/>
<path opacity="0.2" d="M593.505 238.461C598.836 238.557 604.152 239.051 609.408 239.94L609.715 236.776C604.542 235.91 599.31 235.422 594.064 235.318C593.888 236.366 593.691 237.413 593.505 238.461Z" fill="black"/>
<path opacity="0.2" d="M597.1 221.008C601.889 221.366 606.65 222.041 611.348 223.028C611.49 221.948 611.643 220.868 611.797 219.852C607.209 218.9 602.563 218.243 597.889 217.887C597.604 218.945 597.352 219.971 597.1 221.008Z" fill="black"/>
<path opacity="0.2" d="M601.812 203.825C605.946 204.43 610.044 205.252 614.088 206.288C614.285 205.208 614.493 204.203 614.734 203.156C610.81 202.162 606.838 201.365 602.832 200.769C602.459 201.784 602.13 202.81 601.812 203.825Z" fill="black"/>
<path opacity="0.2" d="M607.797 187.172C611.085 187.917 614.548 188.846 617.803 189.872C618.077 188.846 618.351 187.809 618.636 186.783C615.513 185.811 612.258 184.925 609.035 184.202C608.619 185.184 608.202 186.167 607.797 187.172Z" fill="black"/>
<path opacity="0.2" d="M616.751 168.52C616.214 169.47 615.655 170.432 615.173 171.371C617.752 172.185 620.236 173.056 622.626 173.985C622.965 172.98 623.327 171.976 623.722 170.982C621.464 170.14 619.118 169.308 616.751 168.52Z" fill="black"/>
<path d="M641.784 174.406C642.69 174.927 643.636 175.378 644.612 175.756C643.306 179.346 641.542 182.757 639.362 185.908C637.594 186.57 635.756 187.034 633.882 187.29C635.037 187.767 636.238 188.129 637.466 188.37C634.867 191.583 631.723 194.328 628.172 196.481C616.752 174.384 631.789 147.179 641.192 137.664C648.108 146.24 649.489 161.025 645.127 174.212C644.021 174.372 642.902 174.437 641.784 174.406Z" fill="#14A23F"/>
<path d="M641.192 137.632C649.664 157.072 663.112 180.022 684.451 199.613C689.219 162.839 666.148 132.513 641.192 137.632Z" fill="#14A23F"/>
<path d="M689.755 137.654C690.447 139.712 690.972 141.821 691.323 143.961C670.203 142.611 653.741 140.537 641.225 137.61C650.453 115.071 684.221 121.313 705.494 144.706C701.735 144.533 698.096 144.35 694.6 144.134C693.419 141.689 691.775 139.49 689.755 137.654Z" fill="#14A23F"/>
<path d="M641.192 137.632C635.844 150.862 615.37 177.225 588.431 175.853C589.713 166.133 594.864 157.58 601.901 150.938C603.566 153.54 606.208 156.532 609.836 157.094C607.935 154.104 606.702 150.75 606.219 147.255C617.08 138.971 630.714 134.964 641.192 137.632Z" fill="#14A23F"/>
<path d="M641.192 137.632C622.56 139.641 598.942 139.436 574.556 131.811C601.024 112.414 634.452 116.68 641.192 137.632Z" fill="#14A23F"/>
<path d="M622.188 104.562C620.467 104.89 618.776 105.359 617.135 105.966C626.375 119.834 634.277 130.223 641.247 137.632C653.446 122.512 635.822 101.927 611.063 96.592C612.664 99.0904 614.224 101.492 615.743 103.796C617.922 103.642 620.109 103.902 622.188 104.562Z" fill="#14A23F"/>
<g opacity="0.3">
<path d="M655.145 163.995C652.317 155.085 650.947 150.894 643.889 141.401C645.045 143.853 645.955 146.41 646.607 149.037C646.53 149.123 651.659 158.519 652.766 160.204C653.873 161.889 655.145 163.995 655.145 163.995Z" fill="black"/>
</g>
<path opacity="0.3" d="M661.37 141.164C661.37 141.164 650.048 135.245 642.519 137.427C642.519 137.427 645.423 135.267 651.944 136.347C656.186 136.941 661.37 141.164 661.37 141.164Z" fill="black"/>
<g opacity="0.3">
<path d="M634.617 127.026C633.159 125.147 631.394 122.987 628.994 122.879L629.904 124.1C633.208 126.585 635.898 129.775 637.773 133.431C637.124 131.125 636.054 128.955 634.617 127.026Z" fill="black"/>
</g>
<g opacity="0.3">
<path d="M612.696 138.593L622.714 138.712C624.973 138.216 627.199 137.581 629.377 136.811C624.752 134.77 612.696 138.593 612.696 138.593Z" fill="black"/>
</g>
<path opacity="0.3" d="M629.476 155.69L637.356 145.116C637.356 145.116 632.129 155.744 628.117 158.951L629.476 155.69Z" fill="black"/>
<path d="M85.6631 137.632C142.315 187.312 139.575 301.446 138.622 321.567L117.984 321.653C117.984 321.578 117.984 321.232 117.984 321.156C119.672 300.431 126.347 191.848 85.6631 137.632Z" fill="#CD877B"/>
<path opacity="0.2" d="M118.948 304.168C118.948 305.248 118.86 306.328 118.806 307.343C125.528 306.967 132.27 307.147 138.961 307.883V304.708C132.317 303.983 125.623 303.802 118.948 304.168Z" fill="black"/>
<path opacity="0.2" d="M119.376 287.482C119.376 288.562 119.376 289.642 119.376 290.657C125.819 290.159 132.294 290.195 138.731 290.765C138.731 289.721 138.687 288.663 138.6 287.59C132.206 287.028 125.776 286.992 119.376 287.482Z" fill="black"/>
<path opacity="0.2" d="M119.244 270.656C119.244 271.736 119.31 272.816 119.31 273.831C125.419 273.205 131.57 273.075 137.701 273.442C137.624 272.362 137.536 271.336 137.449 270.267C131.38 269.91 125.292 270.04 119.244 270.656Z" fill="black"/>
<path opacity="0.2" d="M118.531 253.754C118.597 254.834 118.663 255.914 118.718 256.929C124.423 256.167 130.18 255.856 135.936 256C135.815 254.92 135.673 253.894 135.541 252.825C129.855 252.703 124.169 253.013 118.531 253.754Z" fill="black"/>
<path opacity="0.2" d="M132.78 235.318C127.552 235.425 122.339 235.912 117.184 236.776L117.49 239.94C122.728 239.054 128.026 238.559 133.339 238.461C133.163 237.413 132.966 236.366 132.78 235.318Z" fill="black"/>
<path opacity="0.2" d="M128.999 217.887C124.331 218.244 119.693 218.901 115.112 219.852C115.266 220.932 115.419 222.012 115.562 223.028C120.26 222.041 125.02 221.366 129.81 221.008C129.514 219.971 129.251 218.945 128.999 217.887Z" fill="black"/>
<path opacity="0.2" d="M124.045 200.769C120.031 201.365 116.051 202.161 112.12 203.156C112.361 204.236 112.569 205.251 112.767 206.288C116.811 205.252 120.909 204.43 125.042 203.825C124.724 202.81 124.384 201.784 124.045 200.769Z" fill="black"/>
<path opacity="0.2" d="M117.82 184.202C114.597 184.925 111.342 185.811 108.219 186.783C108.504 187.809 108.778 188.846 109.052 189.872C112.34 188.846 115.726 187.917 119.058 187.172C118.653 186.167 118.236 185.184 117.82 184.202Z" fill="black"/>
<path opacity="0.2" d="M103.155 171.004C103.528 171.998 103.89 173.002 104.251 174.006C106.641 173.078 109.125 172.206 111.704 171.393C111.189 170.453 110.608 169.492 110.126 168.542C107.726 169.308 105.391 170.14 103.155 171.004Z" fill="black"/>
<path d="M81.6955 174.201C77.3115 161.014 78.7143 146.229 85.6301 137.654C95.0338 147.168 110.071 174.374 98.6506 196.47C95.0997 194.317 91.955 191.573 89.3565 188.36C90.5847 188.118 91.7854 187.757 92.9404 187.28C91.0669 187.023 89.2287 186.559 87.4604 185.897C85.2808 182.746 83.5168 179.335 82.2106 175.745C83.187 175.368 84.1323 174.916 85.0383 174.395C83.9204 174.426 82.8019 174.361 81.6955 174.201Z" fill="#14A23F"/>
<path d="M42.3707 199.613C63.7208 180.022 77.1578 157.061 85.6299 137.632C60.7068 132.513 37.636 162.839 42.3707 199.613Z" fill="#14A23F"/>
<path d="M32.2546 144.134C28.7474 144.35 25.1196 144.533 21.3604 144.706C42.6228 121.313 76.4015 115.071 85.6298 137.61C73.1135 140.537 56.6516 142.611 35.5316 143.961C35.8828 141.821 36.4069 139.712 37.0989 137.654C35.0799 139.49 33.4356 141.689 32.2546 144.134Z" fill="#14A23F"/>
<path d="M120.593 147.255C120.111 150.752 118.874 154.107 116.965 157.094C120.593 156.532 123.245 153.54 124.911 150.938C131.936 157.58 137.098 166.166 138.381 175.853C111.441 177.225 90.9676 150.862 85.6191 137.632C96.1407 134.964 109.775 138.971 120.593 147.255Z" fill="#14A23F"/>
<path d="M152.267 131.8C127.881 139.425 104.306 139.63 85.6299 137.621C92.4032 116.68 125.82 112.414 152.267 131.8Z" fill="#14A23F"/>
<path d="M111.133 103.806C112.653 101.495 114.213 99.094 115.813 96.6028C91.0545 101.927 73.4309 122.523 85.6293 137.643C92.567 130.234 100.48 119.844 109.741 105.977C108.104 105.369 106.418 104.899 104.7 104.573C106.775 103.914 108.959 103.654 111.133 103.806Z" fill="#14A23F"/>
<g opacity="0.3">
<path d="M71.6992 163.995C74.5379 155.085 75.9079 150.894 82.9661 141.401C81.805 143.851 80.8945 146.409 80.248 149.037C80.3138 149.123 75.1845 158.519 74.0885 160.204C72.9925 161.889 71.6992 163.995 71.6992 163.995Z" fill="black"/>
</g>
<path opacity="0.3" d="M65.4854 141.164C65.4854 141.164 76.807 135.245 84.3365 137.427C84.3365 137.427 81.4321 135.267 74.9109 136.347C70.6694 136.941 65.4854 141.164 65.4854 141.164Z" fill="black"/>
<g opacity="0.3">
<path d="M92.1943 127.026C93.663 125.147 95.4275 122.987 97.8278 122.879L96.9071 124.1C93.6094 126.589 90.9235 129.778 89.0488 133.431C89.6942 131.126 90.76 128.955 92.1943 127.026Z" fill="black"/>
</g>
<g opacity="0.3">
<path d="M114.213 138.593L104.196 138.712C101.937 138.216 99.711 137.581 97.5322 136.811C102.157 134.77 114.213 138.593 114.213 138.593Z" fill="black"/>
</g>
<path opacity="0.3" d="M97.3793 155.69L89.499 145.116C89.499 145.116 94.7269 155.744 98.7383 158.951L97.3793 155.69Z" fill="black"/>
<path d="M220.427 11.7472C217.974 12.2201 215.566 12.892 213.226 13.756C226.378 33.5524 237.7 48.3916 247.607 58.9648C265.034 37.3648 239.87 7.98882 204.513 0.38562C206.792 3.98562 209.017 7.41642 211.187 10.678C214.308 10.4423 217.446 10.8054 220.427 11.7472Z" fill="#14A23F"/>
<path opacity="0.3" d="M220.427 11.7472C217.974 12.2201 215.566 12.892 213.226 13.756C226.378 33.5524 237.7 48.3916 247.607 58.9648C265.034 37.3648 239.87 7.98882 204.513 0.38562C206.792 3.98562 209.017 7.41642 211.187 10.678C214.308 10.4423 217.446 10.8054 220.427 11.7472Z" fill="white"/>
<path d="M316.897 58.9865C317.873 61.9257 318.606 64.9379 319.089 67.9937C288.949 66.0605 265.451 63.1121 247.575 58.9325C260.727 26.7593 308.951 35.6585 339.332 69.0521C333.962 68.8145 328.778 68.5445 323.78 68.2421C322.102 64.7547 319.766 61.6137 316.897 58.9865Z" fill="#14A23F"/>
<path opacity="0.3" d="M316.897 58.9865C317.873 61.9257 318.606 64.9379 319.089 67.9937C288.949 66.0605 265.451 63.1121 247.575 58.9325C260.727 26.7593 308.951 35.6585 339.332 69.0521C333.962 68.8145 328.778 68.5445 323.78 68.2421C322.102 64.7547 319.766 61.6137 316.897 58.9865Z" fill="white"/>
<path d="M247.552 58.9648C166.679 129.899 170.591 292.85 171.928 321.567L201.422 321.308C201.422 321.2 201.422 321.092 201.422 320.984C199.011 291.392 189.475 136.368 247.552 58.9648Z" fill="#9F5B53"/>
<path opacity="0.2" d="M171.469 297.504V302.04C181.019 300.982 190.644 300.722 200.239 301.263C200.162 299.805 200.096 298.271 200.031 296.738C190.505 296.199 180.95 296.455 171.469 297.504Z" fill="black"/>
<path opacity="0.2" d="M172.039 273.053C171.962 274.587 171.907 276.099 171.853 277.589C181.046 276.779 190.291 276.725 199.494 277.427C199.494 275.937 199.494 274.425 199.439 272.902C190.317 272.207 181.152 272.258 172.039 273.053Z" fill="black"/>
<path opacity="0.2" d="M173.628 248.332C173.496 249.855 173.375 251.356 173.255 252.857C182.024 252.334 190.821 252.522 199.559 253.419C199.559 251.907 199.625 250.384 199.658 248.883C191.01 248.006 182.305 247.822 173.628 248.332Z" fill="black"/>
<path opacity="0.2" d="M176.335 223.416C176.137 224.928 175.94 226.419 175.765 227.942C183.99 227.739 192.218 228.187 200.37 229.281C200.447 227.769 200.534 226.246 200.633 224.745C192.581 223.676 184.457 223.232 176.335 223.416Z" fill="black"/>
<path opacity="0.2" d="M179.491 202.918C187.08 203.076 194.645 203.798 202.124 205.078L202.562 200.553C195.2 199.325 187.756 198.628 180.291 198.468C180.017 199.926 179.776 201.417 179.491 202.918Z" fill="black"/>
<path opacity="0.2" d="M184.609 177.992C191.433 178.512 198.214 179.479 204.907 180.886C205.105 179.385 205.335 177.884 205.554 176.35C199.001 174.999 192.368 174.061 185.694 173.542C185.322 175 184.96 176.523 184.609 177.992Z" fill="black"/>
<path opacity="0.2" d="M191.339 153.465C197.245 154.324 203.099 155.499 208.875 156.986C209.16 155.495 209.456 154.005 209.796 152.514C204.184 151.073 198.499 149.927 192.764 149.08C192.27 150.56 191.832 152.007 191.339 153.465Z" fill="black"/>
<path opacity="0.2" d="M199.877 129.64C204.645 130.72 209.522 132.038 214.125 133.506C214.505 132.023 214.899 130.554 215.309 129.1C210.859 127.707 206.201 126.432 201.609 125.406C201.061 126.843 200.469 128.258 199.877 129.64Z" fill="black"/>
<path opacity="0.2" d="M212.656 103.094C211.9 104.444 211.154 105.815 210.464 107.165C214.117 108.317 217.661 109.563 221.095 110.902C221.588 109.455 222.103 108.018 222.629 106.582C219.396 105.372 216.053 104.184 212.656 103.094Z" fill="black"/>
<path d="M248.397 111.464C249.695 112.211 251.051 112.858 252.452 113.397C250.577 118.517 248.058 123.386 244.955 127.89C242.442 128.826 239.833 129.489 237.174 129.867C238.825 130.536 240.54 131.043 242.292 131.379C238.581 135.971 234.09 139.896 229.02 142.978C212.711 111.42 234.182 72.5728 247.652 58.9972C257.516 71.2336 259.499 92.3368 253.274 111.172C251.66 111.412 250.028 111.51 248.397 111.464Z" fill="#14A23F"/>
<path opacity="0.3" d="M248.397 111.464C249.695 112.211 251.051 112.858 252.452 113.397C250.577 118.517 248.058 123.386 244.955 127.89C242.442 128.826 239.833 129.489 237.174 129.867C238.825 130.536 240.54 131.043 242.292 131.379C238.581 135.971 234.09 139.896 229.02 142.978C212.711 111.42 234.182 72.5728 247.652 58.9972C257.516 71.2336 259.499 92.3368 253.274 111.172C251.66 111.412 250.028 111.51 248.397 111.464Z" fill="white"/>
<path d="M247.607 58.9648C220.942 61.8268 187.327 61.546 152.475 50.6596C190.221 22.9576 237.93 29.0488 247.607 58.9648Z" fill="#14A23F"/>
<path opacity="0.3" d="M247.607 58.9648C220.942 61.8268 187.327 61.546 152.475 50.6596C190.221 22.9576 237.93 29.0488 247.607 58.9648Z" fill="white"/>
<g opacity="0.3">
<path d="M267.456 96.6029C263.412 83.8805 261.461 77.9081 251.367 64.3433C251.992 64.9589 254.787 72.7889 255.258 75.2513C255.159 75.3701 262.481 88.7837 264.026 91.1921C265.571 93.6005 267.456 96.6029 267.456 96.6029Z" fill="black"/>
</g>
<path d="M247.607 58.9648C259.663 86.6992 278.876 119.445 309.367 147.449C316.129 94.9505 283.195 51.6532 247.607 58.9648Z" fill="#14A23F"/>
<path opacity="0.3" d="M247.607 58.9648C259.663 86.6992 278.876 119.445 309.367 147.449C316.129 94.9505 283.195 51.6532 247.607 58.9648Z" fill="white"/>
<path opacity="0.3" d="M276.378 63.9976C276.378 63.9976 260.201 55.552 249.449 58.6732C249.449 58.6732 253.603 55.6492 262.908 57.064C268.969 57.982 276.378 63.9976 276.378 63.9976Z" fill="black"/>
<g opacity="0.3">
<path d="M238.226 43.8124C236.133 41.1448 233.612 38.056 230.192 37.9048L231.497 39.6328C236.214 43.1796 240.052 47.7369 242.72 52.96C241.799 49.6668 240.276 46.5669 238.226 43.8124Z" fill="black"/>
</g>
<g opacity="0.3">
<path d="M206.793 60.3472L221.041 60.4984C224.266 59.7881 227.443 58.8828 230.554 57.7876C224.011 54.8824 206.793 60.3472 206.793 60.3472Z" fill="black"/>
</g>
<path opacity="0.3" d="M230.828 84.7444L242.073 69.6244C242.073 69.6244 234.62 84.7444 228.921 89.3884L230.828 84.7444Z" fill="black"/>
<path d="M247.607 58.9648C239.935 77.8432 210.749 115.492 172.279 113.537C174.11 99.7024 181.475 87.4336 191.503 77.8972C193.892 81.6232 197.674 85.8892 202.847 86.6992C200.13 82.4345 198.366 77.6482 197.674 72.6592C213.127 60.8764 232.603 55.12 247.607 58.9648Z" fill="#14A23F"/>
<path opacity="0.3" d="M247.607 58.9648C239.935 77.8432 210.749 115.492 172.279 113.537C174.11 99.7024 181.475 87.4336 191.503 77.8972C193.892 81.6232 197.674 85.8892 202.847 86.6992C200.13 82.4345 198.366 77.6482 197.674 72.6592C213.127 60.8764 232.603 55.12 247.607 58.9648Z" fill="white"/>
<path d="M349.339 313.089C343.793 304.449 331.167 301.014 321.939 305.702C319.259 299.531 314.843 294.245 309.211 290.468C303.58 286.692 296.969 284.583 290.161 284.391C283.352 284.199 276.629 285.932 270.788 289.385C264.947 292.838 260.231 297.867 257.198 303.876C242.742 303.995 228.702 312.43 224.636 321.588L367.631 321.448C365.329 314.158 356.123 310.184 349.339 313.089Z" fill="#263238"/>
<path d="M252.594 292.245C250.644 290.885 248.426 289.943 246.084 289.48C245.944 289.44 245.796 289.436 245.654 289.467C245.512 289.498 245.381 289.565 245.271 289.659C245.162 289.754 245.079 289.874 245.029 290.009C244.98 290.144 244.965 290.289 244.988 290.43C245.175 292.389 245.812 294.28 246.851 295.96C247.862 297.136 249.126 298.076 250.552 298.711C251.978 299.346 253.529 299.661 255.093 299.632C256.189 297.04 254.797 293.984 252.594 292.245Z" fill="#263238"/>
<path d="M259.938 289.016C259.416 287.569 258.595 286.245 257.527 285.128C257.466 285.057 257.389 285.003 257.302 284.97C257.215 284.936 257.121 284.925 257.028 284.937C256.935 284.949 256.847 284.983 256.771 285.037C256.696 285.091 256.635 285.163 256.595 285.246C255.952 286.361 255.577 287.606 255.499 288.886C255.597 289.882 255.918 290.845 256.439 291.704C256.96 292.563 257.669 293.297 258.513 293.854C259.234 293.296 259.76 292.529 260.015 291.661C260.271 290.793 260.244 289.868 259.938 289.016Z" fill="#263238"/>
<path d="M610.558 311.836C612.288 306.085 612.379 299.976 610.821 294.178C608.366 300.211 604.886 305.788 600.53 310.67C599.658 302.815 598.192 295.036 596.146 287.396C592.976 295.302 591.668 303.813 592.321 312.29C587.501 307.614 582.295 303.34 576.758 299.513C577.163 304.084 578.699 308.486 581.231 312.337C583.762 316.187 587.212 319.367 591.28 321.599H606.733C610.998 320.364 614.743 317.804 617.411 314.301C620.079 310.798 621.527 306.539 621.54 302.159C619.069 306.495 615.206 309.899 610.558 311.836Z" fill="#263238"/>
<path d="M164.191 311.847C165.912 306.098 165.999 299.994 164.443 294.2C161.988 300.227 158.512 305.8 154.163 310.68C153.29 302.829 151.825 295.053 149.779 287.417C146.614 295.306 145.306 303.799 145.953 312.257C141.155 307.597 135.971 303.337 130.456 299.524C130.862 304.094 132.397 308.497 134.929 312.347C137.46 316.197 140.911 319.378 144.978 321.61H160.432C164.698 320.377 168.445 317.818 171.113 314.315C173.782 310.811 175.229 306.551 175.239 302.17C172.75 306.516 168.862 309.921 164.191 311.847Z" fill="#263238"/>
<path d="M123.354 317.279C124.122 314.715 124.164 311.992 123.475 309.406C122.376 312.095 120.823 314.582 118.882 316.761C118.5 313.258 117.851 309.789 116.942 306.382C115.525 309.907 114.94 313.704 115.233 317.484C113.084 315.398 110.763 313.491 108.295 311.782C108.476 313.822 109.162 315.786 110.291 317.505C111.42 319.224 112.958 320.644 114.772 321.642H121.688C123.58 321.088 125.241 319.949 126.425 318.393C127.609 316.837 128.254 314.947 128.264 313.002C127.152 314.924 125.426 316.428 123.354 317.279Z" fill="#263238"/>
</g>
<defs>
<clipPath id="clip0_34_28838">
<rect width="719" height="421" fill="white"/>
</clipPath>
</defs>
</svg>
