<svg width="109" height="109" viewBox="0 0 109 109" fill="none" xmlns="http://www.w3.org/2000/svg">
<path d="M91.9688 40.875C91.9725 34.5607 90.3804 28.3478 87.3404 22.8135C84.3004 17.2792 79.911 12.6028 74.58 9.21892C69.249 5.83499 63.1492 3.85321 56.8473 3.45764C50.5454 3.06207 44.2457 4.26555 38.5333 6.95629C32.821 9.64703 27.8814 13.7378 24.1731 18.8485C20.4649 23.9593 18.1084 29.9243 17.3226 36.1895C16.5367 42.4548 17.347 48.817 19.678 54.6853C22.0091 60.5536 25.7855 65.7376 30.6563 69.7558V102.188C30.6558 102.768 30.804 103.34 31.0867 103.847C31.3693 104.355 31.7771 104.782 32.2712 105.087C32.7653 105.393 33.3293 105.567 33.9096 105.593C34.4899 105.619 35.0673 105.496 35.5868 105.236L54.5 95.8008L73.4175 105.257C73.8917 105.484 74.4118 105.599 74.9375 105.594C75.8409 105.594 76.7073 105.235 77.3461 104.596C77.9849 103.957 78.3438 103.091 78.3438 102.188V69.7558C82.6055 66.2458 86.0374 61.8358 88.3931 56.8425C90.7488 51.8491 91.9699 46.3962 91.9688 40.875ZM23.8438 40.875C23.8438 34.8118 25.6417 28.8847 29.0103 23.8433C32.3788 18.8019 37.1667 14.8727 42.7684 12.5524C48.3701 10.2321 54.534 9.62496 60.4807 10.8078C66.4275 11.9907 71.8899 14.9104 76.1772 19.1978C80.4646 23.4851 83.3843 28.9476 84.5672 34.8943C85.7501 40.841 85.143 47.005 82.8227 52.6067C80.5024 58.2084 76.5731 62.9962 71.5317 66.3648C66.4903 69.7333 60.5632 71.5313 54.5 71.5313C46.3722 71.5223 38.5799 68.2895 32.8327 62.5423C27.0855 56.7951 23.8528 49.0028 23.8438 40.875ZM30.6563 40.875C30.6563 36.1592 32.0547 31.5492 34.6746 27.6282C37.2946 23.7071 41.0185 20.651 45.3754 18.8463C49.7323 17.0416 54.5265 16.5694 59.1517 17.4894C63.7769 18.4095 68.0255 20.6803 71.3601 24.015C74.6947 27.3496 76.9656 31.5981 77.8856 36.2233C78.8056 40.8486 78.3334 45.6428 76.5288 49.9996C74.7241 54.3565 71.668 58.0804 67.7469 60.7004C63.8258 63.3204 59.2158 64.7188 54.5 64.7188C48.1783 64.712 42.1175 62.1978 37.6474 57.7276C33.1773 53.2575 30.663 47.1967 30.6563 40.875Z" fill="#B4B4B4"/>
<path d="M39.9738 52V47.65L47.5638 40.63C48.0438 40.17 48.3938 39.77 48.6138 39.43C48.8538 39.09 49.0138 38.79 49.0938 38.53C49.1738 38.25 49.2138 37.99 49.2138 37.75C49.2138 37.23 49.0438 36.83 48.7038 36.55C48.3638 36.25 47.8538 36.1 47.1738 36.1C46.5538 36.1 45.9638 36.27 45.4038 36.61C44.8438 36.93 44.4038 37.41 44.0838 38.05L38.7438 35.38C39.5038 33.94 40.6438 32.77 42.1638 31.87C43.6838 30.97 45.5738 30.52 47.8338 30.52C49.4938 30.52 50.9638 30.79 52.2438 31.33C53.5238 31.87 54.5238 32.63 55.2438 33.61C55.9638 34.59 56.3238 35.75 56.3238 37.09C56.3238 37.77 56.2338 38.45 56.0538 39.13C55.8938 39.81 55.5538 40.53 55.0338 41.29C54.5138 42.03 53.7438 42.86 52.7238 43.78L47.0238 48.97L45.9138 46.51H56.8038V52H39.9738ZM63.6257 41.53C62.6057 41.53 61.6657 41.29 60.8057 40.81C59.9457 40.33 59.2557 39.68 58.7357 38.86C58.2357 38.04 57.9857 37.12 57.9857 36.1C57.9857 35.08 58.2357 34.16 58.7357 33.34C59.2557 32.52 59.9457 31.87 60.8057 31.39C61.6657 30.91 62.6057 30.67 63.6257 30.67C64.6657 30.67 65.6057 30.91 66.4457 31.39C67.3057 31.87 67.9857 32.52 68.4857 33.34C69.0057 34.16 69.2657 35.08 69.2657 36.1C69.2657 37.12 69.0057 38.04 68.4857 38.86C67.9857 39.68 67.3057 40.33 66.4457 40.81C65.6057 41.29 64.6657 41.53 63.6257 41.53ZM63.6257 38.41C64.0657 38.41 64.4557 38.31 64.7957 38.11C65.1357 37.89 65.4057 37.61 65.6057 37.27C65.8057 36.93 65.9057 36.54 65.9057 36.1C65.9057 35.66 65.8057 35.27 65.6057 34.93C65.4057 34.59 65.1357 34.32 64.7957 34.12C64.4557 33.9 64.0657 33.79 63.6257 33.79C63.1857 33.79 62.7957 33.9 62.4557 34.12C62.1157 34.32 61.8457 34.59 61.6457 34.93C61.4457 35.27 61.3457 35.66 61.3457 36.1C61.3457 36.54 61.4457 36.93 61.6457 37.27C61.8457 37.61 62.1157 37.89 62.4557 38.11C62.7957 38.31 63.1857 38.41 63.6257 38.41Z" fill="black"/>
</svg>
