<svg width="109" height="109" viewBox="0 0 109 109" fill="none" xmlns="http://www.w3.org/2000/svg">
<path d="M92.9375 41.491C92.9412 35.1767 91.3492 28.9638 88.3091 23.4295C85.2691 17.8951 80.8797 13.2188 75.5487 9.83488C70.2177 6.45096 64.118 4.46917 57.816 4.0736C51.5141 3.67804 45.2144 4.88151 39.5021 7.57226C33.7898 10.263 28.8501 14.3537 25.1419 19.4645C21.4337 24.5753 19.0772 30.5403 18.2913 36.8055C17.5055 43.0707 18.3157 49.433 20.6468 55.3013C22.9779 61.1695 26.7542 66.3535 31.625 70.3717V102.804C31.6246 103.384 31.7727 103.956 32.0554 104.463C32.3381 104.971 32.7458 105.398 33.2399 105.703C33.734 106.009 34.298 106.183 34.8784 106.209C35.4587 106.235 36.036 106.112 36.5556 105.852L55.4688 96.4168L74.3862 105.873C74.8605 106.1 75.3805 106.215 75.9063 106.21C76.8096 106.21 77.676 105.851 78.3148 105.212C78.9536 104.573 79.3125 103.707 79.3125 102.804V70.3717C83.5743 66.8617 87.0062 62.4518 89.3619 57.4584C91.7176 52.4651 92.9387 47.0121 92.9375 41.491ZM24.8125 41.491C24.8125 35.4278 26.6105 29.5007 29.979 24.4593C33.3476 19.4179 38.1354 15.4886 43.7371 13.1683C49.3388 10.848 55.5028 10.2409 61.4495 11.4238C67.3962 12.6067 72.8586 15.5264 77.146 19.8138C81.4333 24.1011 84.3531 29.5635 85.5359 35.5103C86.7188 41.457 86.1117 47.6209 83.7914 53.2226C81.4711 58.8243 77.5418 63.6122 72.5005 66.9807C67.4591 70.3493 61.532 72.1473 55.4688 72.1473C47.341 72.1382 39.5487 68.9055 33.8015 63.1583C28.0543 57.4111 24.8215 49.6188 24.8125 41.491ZM31.625 41.491C31.625 36.7752 33.0234 32.1652 35.6434 28.2441C38.2634 24.323 41.9873 21.2669 46.3441 19.4622C50.701 17.6576 55.4952 17.1854 60.1204 18.1054C64.7457 19.0254 68.9942 21.2963 72.3288 24.6309C75.6634 27.9655 77.9343 32.2141 78.8544 36.8393C79.7744 41.4646 79.3022 46.2587 77.4975 50.6156C75.6928 54.9725 72.6367 58.6964 68.7156 61.3164C64.7945 63.9363 60.1846 65.3348 55.4688 65.3348C49.1471 65.328 43.0863 62.8137 38.6161 58.3436C34.146 53.8735 31.6318 47.8127 31.625 41.491Z" fill="#A64B2F"/>
<path d="M47.3656 52.48C45.9256 52.48 44.4656 52.32 42.9856 52C41.5056 51.68 40.2056 51.21 39.0856 50.59L41.4856 45.37C42.3856 45.89 43.3256 46.28 44.3056 46.54C45.3056 46.78 46.2456 46.9 47.1256 46.9C47.9256 46.9 48.5756 46.77 49.0756 46.51C49.5956 46.23 49.8556 45.82 49.8556 45.28C49.8556 44.82 49.6656 44.47 49.2856 44.23C48.9056 43.97 48.2656 43.84 47.3656 43.84H44.5756V39.49L50.0056 33.97L50.6356 36.34H40.1656V31H55.8256V35.35L50.3956 40.87L47.0056 38.95H48.8656C51.5056 38.95 53.5156 39.54 54.8956 40.72C56.2756 41.9 56.9656 43.42 56.9656 45.28C56.9656 46.48 56.6256 47.63 55.9456 48.73C55.2856 49.83 54.2456 50.73 52.8256 51.43C51.4256 52.13 49.6056 52.48 47.3656 52.48ZM63.4939 41.53C62.4739 41.53 61.5339 41.29 60.6739 40.81C59.8139 40.33 59.1239 39.68 58.6039 38.86C58.1039 38.04 57.8539 37.12 57.8539 36.1C57.8539 35.08 58.1039 34.16 58.6039 33.34C59.1239 32.52 59.8139 31.87 60.6739 31.39C61.5339 30.91 62.4739 30.67 63.4939 30.67C64.5339 30.67 65.4739 30.91 66.3139 31.39C67.1739 31.87 67.8539 32.52 68.3539 33.34C68.8739 34.16 69.1339 35.08 69.1339 36.1C69.1339 37.12 68.8739 38.04 68.3539 38.86C67.8539 39.68 67.1739 40.33 66.3139 40.81C65.4739 41.29 64.5339 41.53 63.4939 41.53ZM63.4939 38.41C63.9339 38.41 64.3239 38.31 64.6639 38.11C65.0039 37.89 65.2739 37.61 65.4739 37.27C65.6739 36.93 65.7739 36.54 65.7739 36.1C65.7739 35.66 65.6739 35.27 65.4739 34.93C65.2739 34.59 65.0039 34.32 64.6639 34.12C64.3239 33.9 63.9339 33.79 63.4939 33.79C63.0539 33.79 62.6639 33.9 62.3239 34.12C61.9839 34.32 61.7139 34.59 61.5139 34.93C61.3139 35.27 61.2139 35.66 61.2139 36.1C61.2139 36.54 61.3139 36.93 61.5139 37.27C61.7139 37.61 61.9839 37.89 62.3239 38.11C62.6639 38.31 63.0539 38.41 63.4939 38.41Z" fill="black"/>
</svg>
