<svg width="59" height="41" viewBox="0 0 59 41" fill="none" xmlns="http://www.w3.org/2000/svg">
<path d="M57.254 6.47904C56.587 4.02033 54.6219 2.0842 52.1263 1.4271C47.6032 0.23291 29.4661 0.23291 29.4661 0.23291C29.4661 0.23291 11.329 0.23291 6.80583 1.4271C4.31041 2.0842 2.34499 4.02033 1.67804 6.47904C0.466064 10.9353 0.466064 20.2329 0.466064 20.2329C0.466064 20.2329 0.466064 29.5304 1.67804 33.9871C2.34499 36.4455 4.31041 38.3816 6.80583 39.039C11.329 40.2329 29.4661 40.2329 29.4661 40.2329C29.4661 40.2329 47.6032 40.2329 52.1263 39.039C54.6219 38.3816 56.587 36.4455 57.254 33.9871C58.4661 29.5304 58.4661 20.2329 58.4661 20.2329C58.4661 20.2329 58.4661 10.9353 57.254 6.47904Z" fill="white"/>
<path d="M23.5342 28.6743L38.6933 20.2332L23.5342 11.7913V28.6743Z" fill="black"/>
</svg>
