<svg width="25" height="25" viewBox="0 0 25 25" fill="none" xmlns="http://www.w3.org/2000/svg">
<path d="M24.009 12.4248C24.009 5.7968 18.637 0.424805 12.01 0.424805C5.38299 0.424805 0.0109863 5.7968 0.0109863 12.4248C0.0109863 18.4128 4.39899 23.3768 10.135 24.2768V15.8928H7.08899V12.4238H10.135V9.7808C10.135 6.7728 11.927 5.1118 14.667 5.1118C15.98 5.1118 17.353 5.3458 17.353 5.3458V8.2988H15.841C14.351 8.2988 13.886 9.2238 13.886 10.1728V12.4248H17.214L16.682 15.8938H13.886V24.2778C19.622 23.3778 24.01 18.4138 24.01 12.4248H24.009Z" fill="#111827"/>
</svg>
