<svg width="24" height="25" viewBox="0 0 24 25" fill="none" xmlns="http://www.w3.org/2000/svg">
<path d="M12.0099 8.4457C9.85951 8.4457 8.10463 10.2006 8.10463 12.351C8.10463 14.5014 9.85951 16.2562 12.0099 16.2562C14.1603 16.2562 15.9152 14.5014 15.9152 12.351C15.9152 10.2006 14.1603 8.4457 12.0099 8.4457ZM23.7228 12.351C23.7228 10.7338 23.7374 9.13124 23.6466 7.51698C23.5558 5.64198 23.1281 3.97792 21.757 2.60683C20.383 1.2328 18.7218 0.808 16.8468 0.71718C15.2296 0.62636 13.6271 0.641008 12.0128 0.641008C10.3956 0.641008 8.79311 0.62636 7.17885 0.71718C5.30385 0.808 3.63979 1.23573 2.26869 2.60683C0.89467 3.98085 0.469866 5.64198 0.379045 7.51698C0.288225 9.13417 0.302873 10.7367 0.302873 12.351C0.302873 13.9652 0.288225 15.5707 0.379045 17.185C0.469866 19.06 0.8976 20.724 2.26869 22.0951C3.64272 23.4691 5.30385 23.8939 7.17885 23.9848C8.79604 24.0756 10.3986 24.0609 12.0128 24.0609C13.63 24.0609 15.2326 24.0756 16.8468 23.9848C18.7218 23.8939 20.3859 23.4662 21.757 22.0951C23.131 20.7211 23.5558 19.06 23.6466 17.185C23.7404 15.5707 23.7228 13.9682 23.7228 12.351ZM12.0099 18.3598C8.68471 18.3598 6.00112 15.6762 6.00112 12.351C6.00112 9.02577 8.68471 6.34218 12.0099 6.34218C15.3351 6.34218 18.0187 9.02577 18.0187 12.351C18.0187 15.6762 15.3351 18.3598 12.0099 18.3598ZM18.2648 7.49941C17.4884 7.49941 16.8615 6.87245 16.8615 6.09609C16.8615 5.31972 17.4884 4.69277 18.2648 4.69277C19.0412 4.69277 19.6681 5.31972 19.6681 6.09609C19.6683 6.28044 19.6322 6.46302 19.5618 6.63339C19.4913 6.80375 19.388 6.95854 19.2576 7.0889C19.1272 7.21926 18.9725 7.32262 18.8021 7.39306C18.6317 7.4635 18.4491 7.49964 18.2648 7.49941Z" fill="#111827"/>
</svg>
