<svg width="24" height="18" viewBox="0 0 24 18" fill="none" xmlns="http://www.w3.org/2000/svg">
<path d="M23.5 3.55679C23.3609 3.05855 23.0957 2.60461 22.7299 2.23884C22.3642 1.87307 21.9102 1.60784 21.412 1.46879C19.542 0.967788 12.016 0.967788 12.016 0.967788C12.016 0.967788 4.50898 0.957788 2.61998 1.46879C2.12174 1.60784 1.6678 1.87307 1.30203 2.23884C0.936261 2.60461 0.671032 3.05855 0.531982 3.55679C0.177502 5.4713 0.00274217 7.41475 0.00998162 9.36179C0.00411075 11.3015 0.178865 13.2375 0.531982 15.1448C0.671032 15.643 0.936261 16.097 1.30203 16.4627C1.6678 16.8285 2.12174 17.0937 2.61998 17.2328C4.48798 17.7348 12.016 17.7348 12.016 17.7348C12.016 17.7348 19.522 17.7348 21.412 17.2328C21.9102 17.0937 22.3642 16.8285 22.7299 16.4627C23.0957 16.097 23.3609 15.643 23.5 15.1448C23.8457 13.2368 24.0131 11.3008 24 9.36179C24.0145 7.41544 23.8471 5.47199 23.5 3.55679ZM9.61398 12.9528V5.75979L15.878 9.36179L9.61398 12.9528Z" fill="#111827"/>
</svg>
