<svg width="28" height="28" viewBox="0 0 28 28" fill="none" xmlns="http://www.w3.org/2000/svg">
<path d="M14.0893 3.87305H14.245C15.6835 3.87811 22.9723 3.92873 24.9375 4.43836C25.5316 4.59389 26.073 4.89706 26.5075 5.31756C26.9421 5.73806 27.2546 6.26117 27.4138 6.83461C27.5905 7.47586 27.7148 8.32467 27.7988 9.20048L27.8163 9.37599L27.8548 9.81473L27.8688 9.99023C27.9825 11.5326 27.9965 12.9771 27.9983 13.2927V13.4192C27.9965 13.7466 27.9808 15.289 27.8548 16.8955L27.8408 17.0727L27.825 17.2482C27.7375 18.2134 27.608 19.1719 27.4138 19.8773C27.255 20.451 26.9427 20.9743 26.5081 21.3949C26.0735 21.8155 25.5319 22.1185 24.9375 22.2735C22.9075 22.8 15.1918 22.8372 14.1225 22.8389H13.874C13.3333 22.8389 11.0968 22.8287 8.75175 22.7511L8.45425 22.741L8.302 22.7342L8.00275 22.7224L7.7035 22.7106C5.761 22.6279 3.91125 22.4946 3.059 22.2719C2.46486 22.1169 1.92336 21.8142 1.48877 21.3939C1.05417 20.9737 0.741732 20.4507 0.58275 19.8773C0.3885 19.1736 0.259 18.2134 0.1715 17.2482L0.1575 17.071L0.1435 16.8955C0.0571333 15.752 0.00927477 14.6062 0 13.4597L0 13.2522C0.0035 12.8894 0.0175 11.6355 0.112 10.2518L0.12425 10.078L0.1295 9.99023L0.1435 9.81473L0.182 9.37599L0.1995 9.20048C0.2835 8.32467 0.40775 7.47417 0.5845 6.83461C0.743214 6.26094 1.05553 5.73758 1.49015 5.31701C1.92476 4.89644 2.4664 4.59343 3.06075 4.43836C3.913 4.21898 5.76275 4.08398 7.70525 3.99961L8.00275 3.9878L8.30375 3.97767L8.45425 3.97261L8.7535 3.9608C10.419 3.90912 12.0852 3.88043 13.7515 3.87473H14.0893V3.87305ZM11.2 9.28992V17.4203L18.4748 13.3568L11.2 9.28992Z" fill="white"/>
</svg>
