<svg width="41" height="41" viewBox="0 0 41 41" fill="none" xmlns="http://www.w3.org/2000/svg">
<path fill-rule="evenodd" clip-rule="evenodd" d="M0 21.0201C0 30.3056 5.87332 38.1845 14.0195 40.964C15.0451 41.1575 15.4189 40.5085 15.4189 39.951C15.4189 39.4517 15.4013 38.1303 15.3912 36.3767C9.68903 37.6465 8.48593 33.5586 8.48593 33.5586C7.55339 31.1301 6.20934 30.4836 6.20934 30.4836C4.34805 29.1791 6.35029 29.2062 6.35029 29.2062C8.4079 29.3546 9.49019 31.3727 9.49019 31.3727C11.32 34.5844 14.2888 33.6566 15.4566 33.1186C15.6429 31.7598 16.1727 30.8346 16.7579 30.3081C12.206 29.7778 7.41999 27.9752 7.41999 19.9207C7.41999 17.6251 8.21913 15.7489 9.53046 14.2792C9.3203 13.7476 8.61681 11.6107 9.73182 8.71772C9.73182 8.71772 11.4534 8.15125 15.3686 10.8713C17.0046 10.4055 18.7576 10.172 20.5006 10.1642C22.2424 10.172 23.9954 10.4055 25.634 10.8713C29.5466 8.15125 31.2657 8.71772 31.2657 8.71772C32.3832 11.6107 31.6797 13.7476 31.4695 14.2792C32.7834 15.7489 33.5762 17.6251 33.5762 19.9207C33.5762 27.9945 28.7839 29.7713 24.2169 30.2927C24.9531 30.9417 25.6075 32.2243 25.6075 34.1844C25.6075 36.9948 25.5836 39.262 25.5836 39.951C25.5836 40.5136 25.9524 41.1666 26.9931 40.9614C35.1317 38.1768 41 30.3043 41 21.0201C41 9.41065 31.8207 0 20.4981 0C9.17935 0 0 9.41065 0 21.0201Z" fill="white"/>
</svg>
