<svg width="24" height="23" viewBox="0 0 24 23" fill="none" xmlns="http://www.w3.org/2000/svg">
<g clip-path="url(#clip0_15_4353)">
<path fill-rule="evenodd" clip-rule="evenodd" d="M0.5 11.7917C0.5 17.0007 3.79479 21.4206 8.36457 22.9798C8.93995 23.0884 9.14962 22.7243 9.14962 22.4116C9.14962 22.1314 9.13974 21.3902 9.13409 20.4065C5.93531 21.1187 5.2604 18.8255 5.2604 18.8255C4.73727 17.4632 3.98329 17.1006 3.98329 17.1006C2.93915 16.3687 4.06236 16.3839 4.06236 16.3839C5.21663 16.4672 5.82377 17.5993 5.82377 17.5993C6.85026 19.401 8.51565 18.8806 9.1708 18.5787C9.27528 17.8165 9.5725 17.2975 9.90078 17.0021C7.34726 16.7046 4.66244 15.6934 4.66244 11.175C4.66244 9.88726 5.11073 8.83476 5.84636 8.01028C5.72846 7.71205 5.33382 6.51333 5.95931 4.89043C5.95931 4.89043 6.92509 4.57265 9.12138 6.09856C10.0392 5.83724 11.0226 5.70622 12.0004 5.70188C12.9774 5.70622 13.9608 5.83724 14.88 6.09856C17.0749 4.57265 18.0393 4.89043 18.0393 4.89043C18.6662 6.51333 18.2715 7.71205 18.1536 8.01028C18.8907 8.83476 19.3354 9.88726 19.3354 11.175C19.3354 15.7042 16.6471 16.701 14.0851 16.9934C14.4981 17.3575 14.8652 18.0771 14.8652 19.1766C14.8652 20.7532 14.8518 22.025 14.8518 22.4116C14.8518 22.7272 15.0586 23.0934 15.6425 22.9783C20.208 21.4162 23.5 17 23.5 11.7917C23.5 5.27914 18.3506 0 11.9989 0C5.64939 0 0.5 5.27914 0.5 11.7917Z" fill="#111827"/>
</g>
<defs>
<clipPath id="clip0_15_4353">
<rect width="23" height="23" fill="white" transform="translate(0.5)"/>
</clipPath>
</defs>
</svg>
