<svg width="31" height="32" viewBox="0 0 31 32" fill="none" xmlns="http://www.w3.org/2000/svg">
<path d="M16.8283 3.0846C17.7708 3.08098 18.7134 3.09045 19.6557 3.11301L19.9063 3.12206C20.1956 3.13239 20.4811 3.14531 20.826 3.16081C22.2003 3.22539 23.138 3.44239 23.9608 3.76143C24.8133 4.08951 25.5315 4.53385 26.2497 5.25201C26.9063 5.89734 27.4145 6.67794 27.739 7.53956C28.058 8.36235 28.275 9.30139 28.3396 10.6757C28.3551 11.0193 28.368 11.3061 28.3783 11.5954L28.3861 11.846C28.409 12.7878 28.4189 13.73 28.4158 14.6721L28.4171 15.6357V17.3278C28.4203 18.2704 28.4104 19.213 28.3874 20.1553L28.3796 20.4058C28.3693 20.6952 28.3564 20.9806 28.3409 21.3255C28.2763 22.6998 28.0567 23.6376 27.739 24.4604C27.4156 25.3229 26.9073 26.1042 26.2497 26.7492C25.6038 27.4058 24.8228 27.914 23.9608 28.2385C23.138 28.5576 22.2003 28.7746 20.826 28.8391C20.4811 28.8546 20.1956 28.8676 19.9063 28.8779L19.6557 28.8856C18.7134 28.9086 17.7708 28.9185 16.8283 28.9153L15.8647 28.9166H14.1739C13.2313 28.9198 12.2887 28.9099 11.3464 28.8869L11.0958 28.8792C10.7892 28.8681 10.4826 28.8551 10.1762 28.8404C8.80184 28.7758 7.86409 28.5563 7.04 28.2385C6.17805 27.9148 5.39731 27.4065 4.75246 26.7492C4.09506 26.1038 3.58638 25.3227 3.26188 24.4604C2.94284 23.6376 2.72584 22.6998 2.66125 21.3255C2.64687 21.019 2.63395 20.7125 2.6225 20.4058L2.61604 20.1553C2.59223 19.213 2.58147 18.2704 2.58375 17.3278V14.6721C2.58015 13.73 2.58962 12.7879 2.61217 11.846L2.62121 11.5954C2.63154 11.3061 2.64446 11.0193 2.65996 10.6757C2.72454 9.3001 2.94154 8.36364 3.26059 7.53956C3.58528 6.67752 4.09496 5.89713 4.75375 5.25331C5.39816 4.59553 6.17841 4.08638 7.04 3.76143C7.86409 3.44239 8.80054 3.22539 10.1762 3.16081L11.0958 3.12206L11.3464 3.1156C12.2883 3.0918 13.2304 3.08103 14.1726 3.08331L16.8283 3.0846ZM15.5004 9.54293C14.6447 9.53083 13.7951 9.68892 13.001 10.008C12.2069 10.3271 11.4842 10.8009 10.8748 11.4017C10.2654 12.0026 9.78144 12.7185 9.45114 13.508C9.12084 14.2975 8.95075 15.1448 8.95075 16.0006C8.95075 16.8564 9.12084 17.7037 9.45114 18.4932C9.78144 19.2827 10.2654 19.9987 10.8748 20.5995C11.4842 21.2004 12.2069 21.6741 13.001 21.9932C13.7951 22.3123 14.6447 22.4704 15.5004 22.4583C17.2133 22.4583 18.856 21.7779 20.0672 20.5667C21.2783 19.3555 21.9588 17.7128 21.9588 16C21.9588 14.2871 21.2783 12.6444 20.0672 11.4332C18.856 10.2221 17.2133 9.54293 15.5004 9.54293ZM15.5004 12.1263C16.0152 12.1168 16.5266 12.21 17.0049 12.4004C17.4833 12.5908 17.9189 12.8746 18.2863 13.2352C18.6537 13.5959 18.9455 14.0261 19.1448 14.5008C19.344 14.9755 19.4467 15.4851 19.4468 16C19.4469 16.5148 19.3444 17.0245 19.1453 17.4992C18.9462 17.974 18.6545 18.4043 18.2872 18.7651C17.9199 19.1259 17.4844 19.4098 17.0061 19.6004C16.5279 19.7909 16.0165 19.8843 15.5017 19.875C14.474 19.875 13.4884 19.4667 12.7617 18.74C12.035 18.0133 11.6267 17.0277 11.6267 16C11.6267 14.9723 12.035 13.9866 12.7617 13.2599C13.4884 12.5332 14.474 12.125 15.5017 12.125L15.5004 12.1263ZM22.2817 7.60543C21.865 7.62211 21.4709 7.79937 21.182 8.1001C20.893 8.40083 20.7317 8.80169 20.7317 9.21872C20.7317 9.63576 20.893 10.0366 21.182 10.3373C21.4709 10.6381 21.865 10.8153 22.2817 10.832C22.7099 10.832 23.1206 10.6619 23.4234 10.3591C23.7261 10.0563 23.8963 9.64564 23.8963 9.21743C23.8963 8.78922 23.7261 8.37854 23.4234 8.07575C23.1206 7.77295 22.7099 7.60285 22.2817 7.60285V7.60543Z" fill="white"/>
</svg>
