<svg width="26" height="27" viewBox="0 0 26 27" fill="none" xmlns="http://www.w3.org/2000/svg">
<path d="M25.4254 16.2393C26.0658 21.2585 22.519 25.8508 17.4997 26.4912C12.4805 27.1316 7.89369 23.5848 7.24782 18.5655C6.60741 13.5463 10.1543 8.95948 15.1735 8.31908C20.1927 7.6732 24.785 11.22 25.4254 16.2393Z" fill="#059669"/>
<path d="M10.4004 20.4976C5.43047 20.4976 1.21038 16.7756 0.580925 11.8385C0.24704 9.21117 0.953117 6.61125 2.57328 4.51488C4.19345 2.41852 6.53064 1.08298 9.15794 0.749092C9.5794 0.694356 10.0063 0.666992 10.4278 0.666992C15.3978 0.666992 19.6179 4.38899 20.2528 9.32611C20.5867 11.9534 19.8806 14.5533 18.2604 16.6497C16.6403 18.7461 14.3031 20.0816 11.6758 20.4155C11.2488 20.4648 10.8219 20.4976 10.4004 20.4976ZM10.4278 2.16674C10.072 2.16674 9.7053 2.18863 9.34952 2.23789C7.12179 2.52252 5.1349 3.65553 3.76105 5.43443C2.38719 7.21333 1.7851 9.41917 2.06973 11.6469C2.60066 15.8341 6.18582 18.9924 10.4004 18.9924C10.7617 18.9924 11.1229 18.9705 11.4787 18.9212C13.7065 18.6366 15.6933 17.5036 17.0672 15.7247C18.4411 13.9458 19.0431 11.7399 18.7585 9.51222C18.2221 5.32497 14.6424 2.16674 10.4278 2.16674Z" fill="#2A4074"/>
</svg>
