<svg width="70" height="22" viewBox="0 0 70 22" fill="none" xmlns="http://www.w3.org/2000/svg">
<path d="M43.6001 7.18663C43.487 7.18663 43.3703 7.15128 43.2713 7.0841L34.9946 1.452L26.7215 7.0841C26.5235 7.22199 26.2619 7.22199 26.0639 7.0841L17.7907 1.452L9.51757 7.0841C9.31958 7.22199 9.05796 7.22199 8.85997 7.0841L0.254481 1.22926C-0.0142195 1.04895 -0.0813946 0.684787 0.0989175 0.416087C0.27923 0.150922 0.646925 0.0802112 0.91209 0.264059L9.18523 5.89616L17.4584 0.264059C17.6564 0.126173 17.918 0.126173 18.116 0.264059L26.3891 5.89616L34.6623 0.264059C34.8603 0.126173 35.1219 0.126173 35.3199 0.264059L43.593 5.89616L51.8662 0.264059C52.0642 0.126173 52.3258 0.126173 52.5238 0.264059L60.8005 5.89616L69.0771 0.264059C69.3458 0.0837467 69.71 0.150922 69.8903 0.419622C70.0706 0.688323 70.0035 1.05248 69.7348 1.23633L61.1257 7.09117C60.9277 7.22552 60.6661 7.22552 60.4681 7.09117L52.202 1.452L43.9289 7.0841C43.8299 7.15128 43.7132 7.18663 43.6001 7.18663Z" fill="#9CA3AF"/>
<path d="M43.6001 14.4201C43.487 14.4201 43.3703 14.3848 43.2713 14.3176L34.9981 8.6855L26.725 14.3176C26.527 14.452 26.2654 14.452 26.0674 14.3176L17.7943 8.6855L9.52111 14.3176C9.32312 14.452 9.06149 14.452 8.8635 14.3176L0.254481 8.46276C-0.0142195 8.27891 -0.0813946 7.91475 0.0989175 7.64959C0.27923 7.38089 0.646925 7.31018 0.91209 7.49402L9.18523 13.1261L17.4584 7.49402C17.6564 7.35967 17.918 7.35967 18.116 7.49402L26.3891 13.1261L34.6623 7.49402C34.8603 7.35967 35.1219 7.35967 35.3199 7.49402L43.593 13.1261L51.8662 7.49402C52.0642 7.35967 52.3258 7.35967 52.5238 7.49402L60.8005 13.1261L69.0771 7.49402C69.3458 7.31371 69.71 7.38089 69.8903 7.64959C70.0706 7.91829 70.0035 8.28245 69.7348 8.46276L61.1257 14.3211C60.9277 14.4555 60.6661 14.4555 60.4681 14.3211L52.1914 8.68903L43.9183 14.3211C43.8299 14.3883 43.7132 14.4201 43.6001 14.4201Z" fill="#9CA3AF"/>
<path d="M43.6001 21.8416C43.487 21.8416 43.3703 21.8063 43.2713 21.7391L34.9981 16.107L26.725 21.7391C26.527 21.8735 26.2654 21.8735 26.0674 21.7391L17.7943 16.107L9.52111 21.7391C9.32312 21.8735 9.06149 21.8735 8.8635 21.7391L0.254481 15.8807C-0.0142195 15.7004 -0.0813946 15.3363 0.0989175 15.0676C0.27923 14.7989 0.646925 14.7281 0.91209 14.912L9.18523 20.5441L17.4584 14.912C17.6564 14.7776 17.918 14.7776 18.116 14.912L26.3891 20.5441L34.6623 14.912C34.8603 14.7776 35.1219 14.7776 35.3199 14.912L43.593 20.5441L51.8662 14.912C52.0642 14.7776 52.3258 14.7776 52.5238 14.912L60.8005 20.5441L69.0771 14.912C69.3458 14.7281 69.71 14.7989 69.8903 15.0676C70.0706 15.3327 70.0035 15.6969 69.7348 15.8807L61.1257 21.7356C60.9277 21.8699 60.6661 21.8699 60.4681 21.7356L52.1914 16.1035L43.9183 21.7356C43.8299 21.8063 43.7132 21.8416 43.6001 21.8416Z" fill="#9CA3AF"/>
</svg>
